<?xml version="1.0" encoding="UTF-8"?>
<svg version="1.1" viewBox="0 0 898 1600" width="720" height="1282" xmlns="http://www.w3.org/2000/svg">
<path transform="translate(0)" d="m0 0h898v1600h-898z" fill="#F6F9FB"/>
<path transform="translate(0)" d="m0 0h898v735h-1v-7l-43 1h-15l-9-1v2l-11 1v-1l-22-1-8-1-5-4-2-5 1-7 5-5 9-5 4-1h96l-1-9h-8l1-5-3 5h-36l-8-6-6-2-7-1-4-4-21-9-27-11-1-2 33-17 19-9 14-5-1-3-11 5h-2v-3l-9 5-7 3-11 5-8 4-5 3h-2l-3 3-5 1-2 4-4 3-9-3-13-6-15-7 1-3 8-4 10-4 43-8 42-10 22-3h23l12 2-7-2-9-1h-14l-18 2-7 1 2-5 4-11v-19l5-6 3-8 1-17-1-6 15-29 14-27 12-23v-8l-9-3-9-1 4 3 6 2-3 2-45 17-16 6-7-1-10-4v-2l-6-2-13-5-15-4-11-14-10-8-27-14-4-3 12-4 10-6 7-6 6-10 3-9 4-23 3-7 9-6 3-4 1-3 5 1 3 1-1-2v-7l3-12v-9l-4-16-7-11-10-9 6-7 1-2 1-10h-2l-2 4-6 3h-7l-33-11-11-2h-13l-4 1h22l15 4 21 8h13l5-3-1 8-6 3-8 1 7 11 3 7v7l-6-1-4-1 6 14 1 13-2 3-4-1-11-10-2-1 6 9v1l-7-1-14-7-10-7-8 1-6-3 10 9-4 1-16-5-6-2 3 3-6-1-9-7 4 5-2 8-4 7-3-3-3-9-5 3h-3l-2 5-6 8-7 5h-2l1-7 5-12-12 8-4 2v-13l5-12 2-3 4-15 4-6 6-5 2-3-7 5-6 10-5 16-5 12-1 4v14l4 14 1 4-1 4 1 10 4 6 3 4-15 7-9 4h-2v-2l15-8-14 7-4 1v6l-3 2h-8l-5-3-6-1-80-32-3-2-2-13-3-6v-2l4 2 5 5 1-5v-8l-4-8-9-10 5-9 9-12 6 2 9 4 5 1h15l9-3 9-6 10 15 12 25 6 21 3 16v5l-1 1 7 6 1 6-1 2 3-1 2-5 7-10 7-7 7-5-2-11-8-36-2-8h-2l1 5-2-2-6-12-8-8-14-8-14-6 2-2-14-4 1-4 15-3 10-4 10-7 6-7 5-13 2-10 2-2h3l-3-7 2-16 4-9 10-19 3-11v-10l-4-11-6-8-8-6-9-3-1-10-6-10-8-6-2-1 3 9 1 7-2 2-3 1-13-4h-20l-12 3-16 8-10 9-8 12 1-6 4-8-7 3-3-1 12-5 8-6 10-6 10-4 15-3h12 2-20l-14 4-14 7-14 9-8 3h-11l-5-2 4 7 9 3-1 2-8 4-8 9-3 8v9l4 10 4 5 3 7-1 5-2 4v13l4 7 5 4 4 1-6-3-5-6-2-5v-9l4-8 4-3h8l6 4 3 6 5-20 5-12 16 2h18l18-3 12-4 10-5-1 5-8 8 12-3 11-6 4 13v23l-6 36-5 12-8 9-10 6-13 4h-12l-16-4-6-2 7 5 16 4 1 16-4 6-8 4-10 1-9-2-11-6-7-8-2-6h-2l-1-7-1-1-16 4-19 7-13 7-3 2-4-1h-1l-10-1-1-1-1-16-5-13-9-11-11-13-7-14-2-14-1-20-3-20-6-16-7-11-9-9-10-6-11-4-12-2h-16l-15 3-12 5-11 8-8 10-6 12-5 17-3 20 1 8-3 3-7 13-10 17-5 14-1 5v9l3 10 9 10 1 1 1 16 3 9 9 7 1-4 7-16 6-7 8-5 21-7h6 2l3-1 1-13 13-2 2-1-9 2h-9l-12-4-9-6-7-7-5-8-3-11-1-17v-17l3-10 2 2 2-1h12l-2-4-7-1-5 2 2-6 7-13 5-6 8-4h20l5 3 6 8 6 13v2l-10 3-2 4 4-1h10l12 12 9 5 1 10 4-6 4-3h6l5 3 2 4v11l-5 8-7 4h-12l-7 13v30l7 2 26 9 11 4-3 2-15 5h-14l-8-4 1 6 2 6-6 3-8-2-21 9 21-7 4 1-7 3 1 3-10 16-5 12-2 8-8 3 3-1 4-1v6l-3 7 2 9 5 2-1 2 8 6 7 11-6 4-4 7-9-3-12-7-20-2-13-5-8-7-5-8 1-2 9 9-4-5-6-8-4-10-1-5-1-8h3l5 8 2-1-5-5v-4h3v-3l10-1 11-5 19-7 4-4-20 8-10 5h-2v-2l-12 1-3-1-17-11-14-10-6-7-5-2 6 14-1 2-7-5-7-3-2-13-6-8-2-1 1 2v11l-9-6 7 6 2 4-9-6-8-4-13-3h-23l-16 4-24 11-7 3-3-1 22-12 13-5 15-3h16v-2l-22 2-15 4-19 9-16 9-6 2h-13l-3-1 3 6 6 5 4 3-10 4-8 2h-10l-4-1 5 10 9 9 10 6-1 2-6 1 1 4 8 5 16 3 5 23 4 32 5 12 7 8 9 7 5 2-3 3-11 7-7 8-10 19-4 8-8 3-36 11-38 10h-21l4-3 9-4-3 1-10 3-11-22z" fill="#F6F9FB"/>
<path transform="translate(593,84)" d="m0 0 5 2 7 6 5 9v10l7 1 9 6 7 8 4 9 1 4v10l-4 13-10 19-3 7-2 16 2 4v3l-4 2-4 16-5 10-7 7-12 7-14 4-7 1-1 3 7 1 8 3-1 2 12 5 11 6 10 9 6 9 2 4v-2h2l5 16 8 36-1 4-10 8-7 8-5 8v3l-6 1 2-3-1-6-7-6 2-1-5-26-7-21-10-20-9-14-9 6-9 3h-15l-10-3-8-4h-2l-10 14-3 6 7 7 5 8 1 3v8l-2 5-3-1-4-5-2-1 4 8 2 13 3 1 19 8 60 24 6 2 1-2 1 3 3 1h8l2-1v-7l9-3 10-5 3 1-16 8h-2v2l22-10 3-2-6-7-1-2-1-12 1-4-4-11-1-5v-14l4-12 4-9 4-13 6-9 7-5 2 1-3 1-2 4-5 4-4 8-4 14-5 10-1 3-1 13 14-10h2l-1 5-5 14 11-8 6-10 6-3h2l5 11 3-3 3-9-4-8 9 6 5 2-4-4 9 3 16 5h3l-9-8-3-3 5 2 6 2 6-1 15 10 11 5h4l-4-6-1-3 4 2 10 9h3l1-2-1-13-6-15 11 3-2-10-6-11-3-5 10-1 5-2v-7l-4 3h-13l-24-9-12-3h-26l3-2 5-1h13l18 4 22 8 4 1h7l6-3 2-3h2v10l-4 6-3 3 11 10 6 10 4 16v9l-3 12v9l-5-1-3-1-1 5-7 6-5 3-3 11-4 22-6 12-7 8-11 7-12 5 24 12 10 7 8 7 8 11 24 7 10 5v2l10 3 7 1 35-13 26-10-3-2-4-3-7-1v-1h11l12 3 3 2v8l-23 45-10 19-8 15 1 13-1 10-4 10-4 4v19l-5 13-2 3 10-2 15-2h16l15 3-2 2-11-2h-23l-26 4-48 11-33 6-10 4-8 4-1 2 6 2 20 9 9 4 5-2 5-5 5-3 3-2h2l8-5 12-5 5-3 10-4 4-2-1 4 10-5h3l2 4-15 5-29 14-21 11-1 1 44 18 8 5v2h7l8 3 6 5 36 1 2-5 2-2-1 5-1 2 8-1v3h-106l-6-1h-8l-4 1 3-3h71l-9-5h-7l-3 5h-2l1-10-19-8-27-11-30-13-25-12-16-8-25-12-17-5-5-1h-14l-12 3-12 6-10 8-10 12-9 18 59 2 4 5v8l-3 5-5 2h-18v56l-5 5-6 1-7-3-2-4v-55h-18l-6-3-2-4 1-9 1-4-7-1-3-1h-17l-10 2v2l11 6 8 9 5 10 2 8v12l-3 10-6 10-7 7-10 5-11 3h-8l-12-3-10-6-8-8-6-13-1-4v-15l4-11 6-9 3-4-4-2-8-8v-6l2-3-2-3 3-6 4-2-1-5 5-5 10-3 17-5h3l1-10 6-35v-8l-3-5-5-2-156-2h-84l-5 4-1 2v10l12 57 5 21-1 4-5-18-3-12h-3l-8 8-4 9-1 8 23 4v2l-9-1h-7l-1 1-13-1-11-2 4-2 5-1-6-16-6-8-12-10-14-7-12-2h-9l-16 4-17 7-24 14-29 15-21 11v3l12 12 10 7-4 1-9-7-10-8-7-8-7-7-8-7-9-6-10-6-6-7-8-16-15-15-8-4-4-1h-13l-11 3v-110l3 4 8 16v2l10-4h2l1-4v3l2 1-12 6h18l45-12 29-9h4l1-2 3-1 10-21 8-11 9-7 7-4-11-7-9-9-5-11-2-9-3-26-4-19v-4l-13-1-10-5-3-3 1-4 6-1-11-8-8-8-4-7v-3h14l17-5-8-6-4-5v-3h16l12-5 18-10 14-6 12-3 7-1h15v2l-23 2-17 5-25 13 9-3 24-11 16-4h23l16 4 11 7h1l-9-7 2-1 8 6v-12l4 2 5 7 2 13 9 4 4 2-5-12v-2l11 1v1l-5 1 10 9 18 12 9 5 5 1 7-1 2 1v2l16-8 18-7 4 1-8 4-4 3-22 8-6 3h-10v3h-3l3 7 3 3-3 1-6-9h-1l1 8 1 5 5 11 6 8 4 5-4-2-7-7 3 6 4 5 9 6 9 3 20 2 16 9 5 1 4-7 5-4-9-12-6-4v-2l-4-2-2-9 3-7v-5l-6 3-2-1 6-4h4l1-8 7-16 9-14-4-1 6-3-20 7-3-1 23-10 8 2 6-2-4-8 1-6 1 3 7 2h14l15-5-3-2-25-9-9-3h-4l-1-2v-30l8-14h12l7-4 4-7v-11l-2-4-4-2h-6l-5 4-3 6h-1l-1-12-9-5-11-11h-14l1-4 6-3h5l-8-17-6-7-3-1h-20l-9 5-7 11-5 11 4-2 7 1 3 5-3 1h-10l-3 1-1-1-2 8v17l1 17 4 13 7 9 8 7 12 5 4 1h9l11-3 3 1-11 4h-9v10l-1 3-5 3v-2l-16 4-13 5-8 6-6 10-4 10v5l-4-2-9-7-2-8-1-16-8-8-4-9-1-4v-9l3-12 8-16 9-15 3-6 1-5 2 2-1-8 4-24 6-18 7-11 7-8 10-7 12-5 15-3h16l15 3 10 4 10 7 9 9 8 14 5 17 2 15 2 30 4 11 6 9 12 14 7 10 4 11 1 16 10 1 2-1v2l5-1 10-6 14-6 19-6 7-1 1 2v7h2l6 10 8 6 9 4 11 1 10-3 5-5 1-2v-16l-10-1-9-4-7-5 2-1 14 5 9 2h12l15-5 10-7 6-8 4-10 6-36v-23l-3-10-1-2-10 6-10 3-4-1 8-7 2-5-14 7-17 4-8 1h-18l-16-2-6 18-3 15-3-4-3-5-4-2h-8l-5 5-2 5v9l4 8 5 4 6 2 8 1v1h-10l-8-4-6-7-1-3v-13l3-6-1-5-4-8-5-8-1-4v-9l4-9 7-8 6-4 3-1-8-3-4-6v-2l5 1h11l12-5 15-10 15-6 8-2h20l8 2v1l-10-1h-12l-15 3-12 5-11 7-5 4-9 4 7-2-3 9 6-8 7-7 14-8 12-4 5-1h20l14 4 3-3-3-12z" fill="#D4C7C6"/>
<path transform="translate(204,326)" d="m0 0h1l2 19 3 12 5 10 7 8 3 1 1-6 4-6 4-3h7l8 4 3-3 4-10 3-11h2v-6l4 5 4 6 8 5 4 4 6 11 6 7-9 3h-12l4 1h9l10-3 4 4-1 20-1 2 2-3v-11l1-4h2l4 5 14 9 28 1 3 4 4 8-1 3h-3l-1 2v-2l-11-2-16-6-10-5 10 6 7 3-1 3h-15l-10-3 14 5 24 5 24 3 11 1 2 8h2l-3-7-3-18-4-30h20l18-6 15-8 9-7v3l-10 9-4 3h9l13-5 4-2v5l13-3 9 1 6 2v-2l-5-2-8-3h-12l5-5 10-13 4-5 9 14 6 15 3 14 1 9 4-7 4-4 8-1 6 5 3 8v7l-3 8-8 7-2 1h-12l-2-1-8 16-11 12v16l5 12v9l-1 3 2-1 1 2v11h2l-3-23-4-11-2-4v-9l3-1h12l6 4 6 7v3h2v-2l6 1 6 4 3 5v7l5 1 16 8 9 8 10 15 6 13 6 17 10 26 16 47 2 9-5-2-10-5-11-3h-20l-2-3 4-23v-13l-4-5-5-2-156-2h-84l-5 4-1 2v10l12 57 5 21-1 4-5-18-3-12h-3l-8 8-4 9-1 8 23 4v2l-9-1h-7l-1 1-13-1-11-2 4-2 5-1-6-16-6-8-12-10-14-7-12-2h-9l-16 4-17 7-24 14-29 15-21 11v3l12 12 10 7-4 1-9-7-10-8-7-8-7-7-8-7-9-6-10-6-6-7-8-16-15-15-8-4-4-1h-13l-11 3v-110l3 4 8 16v2l10-4h2l1-4v3l2 1-12 6h18l45-12 29-9h4l1-2 5-1 8-18 9-13 9-7 7-4 8 1 14 2 3 12 5 7 8 4 5 1 13-1 9-3 8-6 8-9 4-11v-9l-2-4 5 1 4 3v9l-2 9-4 9 4-8 2-7 1-12 6 2 25 12 12 8-2-5 1-4-2 5-11-6-21-10-20-8-4-2-2-8 1-7 3-8-1 1-4 10 3 15 3 4-1-4 5 5v10l-4 10-9 10-10 6-8 2h-12l-8-3-7-8-2-6v-5l13-2 10-5 11-9 6-5 4-6-5 6-12 9-13 6-11 3h-15l-13-4-11-7-8-9-4-8-2-8-3-27-3-15-1-14 20-1 14-3 6-1-4 3 15-3 15-6 14-8z" fill="#C4C9CB"/>
<path transform="translate(702,252)" d="m0 0h13l18 4 22 8 4 1h7l6-3 2-3h2v10l-4 6-3 3 11 10 6 10 4 16v9l-3 12v9l-5-1-3-1-1 5-7 6-5 3-3 11-4 22-6 12-7 8-11 7-12 5 24 12 10 7 8 7 8 11 24 7 10 5v2l10 3 7 1 35-13 26-10-3-2-4-3-7-1v-1h11l12 3 3 2v8l-23 45-10 19-8 15 1 13-1 10-4 10-4 4v19l-5 13-2 3 10-2 15-2h16l15 3-2 2-11-2h-23l-26 4-48 11-33 6-10 4-8 4-1 2 6 2 20 9 9 4 5-2 5-5 5-3 3-2h2l8-5 12-5 5-3 10-4 4-2-1 4 10-5h3l2 4-15 5-29 14-21 11-1 1 44 18 8 5v2h7l8 3 6 5 36 1 2-5 2-2-1 5-1 2 8-1v3h-106l-6-1h-8l-4 1 3-3h71l-9-5h-7l-3 5h-2l1-10-19-8-27-11-30-13-25-12-16-8-25-12-17-5-5-1h-14l-12 3-15 6-7 2-6 3h-3v3l-9-3-6-9-14-43-8-24-2-8v-13l2-28 3-18 5-17 8-14 9-10 12-10 17-10 3-3 6-4 10-5 14-5h3l2-6h-5l5-6 3-1v2h2l1-13-2-6h-10l-8-3-5-6-1-2-1-12 1-4-4-11-1-5v-14l4-12 4-9 4-13 6-9 7-5 2 1-3 1-2 4-5 4-4 8-4 14-5 10-1 3-1 13 14-10h2l-1 5-5 14 11-8 6-10 6-3h2l5 11 3-3 3-9-4-8 9 6 5 2-4-4 9 3 16 5h3l-9-8-3-3 5 2 6 2 6-1 15 10 11 5h4l-4-6-1-3 4 2 10 9h3l1-2-1-13-6-15 11 3-2-10-6-11-3-5 10-1 5-2v-7l-4 3h-13l-24-9-12-3h-26l3-2z" fill="#E4CACB"/>
<path transform="translate(232,426)" d="m0 0 5 1 4 3v9l-2 9-4 9 4-8 2-7 1-12 6 2 25 12 12 8 4 1 2 4 10 9 8 11 6 13 5 16-1 7-13 26-8 18-5 2-3 6v10l12 57 5 21-1 4-5-18-3-12h-3l-8 8-4 9-1 8 23 4v2l-9-1h-7l-1 1-13-1-11-2 4-2 5-1-6-16-6-8-12-10-14-7-12-2h-9l-16 4-17 7-24 14-29 15-21 11v3l12 12 10 7-4 1-9-7-10-8-7-8-7-7-8-7-9-6-10-6-6-7-8-16-15-15-8-4-4-1h-13l-11 3v-110l3 4 8 16v2l10-4h2l1-4v3l2 1-12 6h18l45-12 29-9h4l1-2 5-1 8-18 9-13 9-7 7-4 8 1 14 2 3 12 5 7 8 4 5 1 13-1 9-3 8-6 8-9 4-11v-9z" fill="#CBDBD2"/>
<path transform="translate(593,84)" d="m0 0 5 2 7 6 5 9v10l7 1 9 6 7 8 4 9 1 4v10l-4 13-10 19-3 7-2 16 2 4v3l-4 2-4 16-5 10-7 7-12 7-14 4-7 1-1 3 7 1 8 3-1 2 12 5 11 6 10 9 6 9 2 4v-2h2l5 16 8 36-1 4-10 8-7 8-5 8v3l-6 1 2-3-1-6-7-6 2-1-5-26-7-21-10-20-9-14-9 6-9 3h-15l-10-3-8-4h-2l-10 14-3 5-8-1-7-6-6-3-3-9-4 8-2 1-4-8-9-8-10-4-13-2h-16l-17 3-17 6-5 1h-7-4l-3-4 1-6 1 3 7 2h14l15-5-3-2-25-9-9-3h-4l-1-2v-30l8-14h12l7-4 4-7v-11l-2-4-4-2h-6l-5 4-3 6h-1l-1-12-9-5-11-11h-14l1-4 6-3h5l-8-17-6-7-3-1h-20l-9 5-7 11-5 11 4-2 7 1 3 5-3 1h-10l-3 1-1-1-2 8v17l1 17 4 13 7 9 8 7 12 5 4 1h9l11-3 3 1-11 4h-9v10l-1 3-5 3v-2l-16 4-13 5-8 6-6 10-4 10v5l-4-2-9-7-2-8-1-16-8-8-4-9-1-4v-9l3-12 8-16 9-15 3-6 1-5 2 2-1-8 4-24 6-18 7-11 7-8 10-7 12-5 15-3h16l15 3 10 4 10 7 9 9 8 14 5 17 2 15 2 30 4 11 6 9 12 14 7 10 4 11 1 16 10 1 2-1v2l5-1 10-6 14-6 19-6 7-1 1 2v7h2l6 10 8 6 9 4 11 1 10-3 5-5 1-2v-16l-10-1-9-4-7-5 2-1 14 5 9 2h12l15-5 10-7 6-8 4-10 6-36v-23l-3-10-1-2-10 6-10 3-4-1 8-7 2-5-14 7-17 4-8 1h-18l-16-2-6 18-3 15-3-4-3-5-4-2h-8l-5 5-2 5v9l4 8 5 4 6 2 8 1v1h-10l-8-4-6-7-1-3v-13l3-6-1-5-4-8-5-8-1-4v-9l4-9 7-8 6-4 3-1-8-3-4-6v-2l5 1h11l12-5 15-10 15-6 8-2h20l8 2v1l-10-1h-12l-15 3-12 5-11 7-5 4-9 4 7-2-3 9 6-8 7-7 14-8 12-4 5-1h20l14 4 3-3-3-12z" fill="#C4C8CA"/>
<path transform="translate(871,446)" d="m0 0h11l12 3 3 2v8l-23 45-10 19-8 15 1 13-1 10-4 10-4 4v19l-5 13-2 3 10-2 15-2h16l15 3-2 2-11-2h-23l-26 4-48 11-33 6-10 4-8 4-1 2 6 2 20 9 9 4 5-2 5-5 5-3 3-2h2l8-5 12-5 5-3 10-4 4-2-1 4 10-5h3l2 4-15 5-29 14-21 11-1 1 44 18 8 5v2h7l8 3 6 5 36 1 2-5 2-2-1 5-1 2 8-1v3h-106l-6-1h-8l-4 1 3-3h71l-9-5h-7l-3 5h-2l1-10-19-8-27-11-30-13-25-12-6-3 1-4h2l-1-3 9-2 4-2 1-7-1-3 9 1 21-6 16-8 6-7h-2l2-4 4-9-4 4 2-5 4-12v-5l-6 11-2 1 2-5 5-10 1-14-3 1-8 12-8 8-11 7-10 4 2-11v-11l-3-3-6 1-1 2-1 9-1 2h-2l-2 9-5 10-9 3-12 1-1-4h-6l-5 4-12-1h-7l-5-1-14-1-28-4-5-3-1-4-1-8 1-2 4 1-1 9 12-30 16-41 18-46 2-3 44 11 33 7 4 2 8 2h7l1 1 8 1 11 3v-3l-10-2-4-1v-2l-5 1-6-2-11-2-28-6-18-4-7-2-9-2v-2l8 1 41 9 39 8 11 2v-1l8-2-4-3-13-5-8-2v-1l9 1 13 5 6 3v2l10 3 7 1 35-13 26-10-3-2-4-3-7-1z" fill="#C3C8CA"/>
<path transform="translate(516,352)" d="m0 0 4 2 20 8 37 15 22 9 4 1 1-2 1 3 3 1h8l2-1v-7l9-3 10-5 3 1-16 8h-2v2l22-10 4-2 6 1h10l3 7-1 9-1 4-3-1-6 5 4 1-1 4-1 2-19 7-8 4-6 4h-2l-1 3-17 10-13 11-8 9-8 16-5 19-3 22-1 19v13l2 6 3 12 17 50 3 9 5 7 6 1v2h2v-3l9-4 9-3 3 1-11 8-8 9-8 13-4 9 59 2 4 5v8l-3 5-5 2h-18v56l-5 5-6 1-7-3-2-4v-55h-18l-6-3-2-4 1-9 1-4-7-1-3-1h-17l-10 2v2l11 6 8 9 5 10 2 8v12l-3 10-6 10-7 7-10 5-11 3h-8l-12-3-10-6-8-8-6-13-1-4v-15l4-11 6-9 3-4-4-2-8-8v-6l2-3-2-3 3-6 4-2-1-5 5-5 10-3 17-5h3l1-10 6-35 1-9h1v14l-4 24 1 1h20l13 4 10 5 3 2-16-47-10-28-8-20-5-13-9-15-8-9-10-6-14-6-1 2v-9l-4-6-10-4v2h-2l-4-7-6-5-2-1h-15l1 9 5 11 3 19v8h-2l-1-11-1-1-3 3 2-6v-9l-5-12v-16l8-8 7-11 5-10 2 1h12l6-4 4-5 2-1 1-3v-14l-4-6-2-1 2-5 5-13 2-7z" fill="#C3C8CA"/>
<path transform="translate(0,484)" d="m0 0 3 4 8 16v2l10-4h2l1-4v3l2 1-12 6h18l45-12 29-9h4l1-2h8l5 6 2 1 9 24 6 14 6 15 17 4 6 3 2 2 8 6 11 8h2v2l9 1 10 2 25 2 37 1h14l2 7-5 8-8 16-6 16-14-2-14-8-10-4-6-1h-15l-12 2-33-12-7-1-11-4h-5l5 5 8 7 2-1v4l2 1-2 1-7-2-3-1 2 6v3 2l7-2 1-4 2 5h3l-2 6-14 4-4 2-5 2-41 9h-4v-2h-2l-1 2-10-1h-8l-9-6-6-8-7-14-15-15-8-4-4-1h-13l-11 3z" fill="#E4CACB"/>
<path transform="translate(897,459)" d="m0 0h1v276h-1v-7l-43 1h-15l-9-1v2l-11 1v-1l-22-1-8-1-5-4-2-5 1-7 5-5 9-5 4-1h96l-1-9h-8l1-5-3 5h-36l-8-6-6-2-7-1-4-4-21-9-27-11-1-2 33-17 19-9 14-5-1-3-11 5h-2v-3l-9 5-7 3-11 5-8 4-5 3h-2l-3 3-5 1-2 4-4 3-9-3-13-6-15-7 1-3 8-4 10-4 43-8 42-10 22-3h23l12 2-7-2-9-1h-14l-18 2-7 1 2-5 4-11v-19l5-6 3-8 1-17-1-6 15-29 14-27 12-22z" fill="#F6F9FB"/>
<path transform="translate(390,443)" d="m0 0 11 6-4 2-6 5-4 10v22l3 23v4h2l2 8 2-4 3 38 68 1 1-3 1-1 4-28 5-23 4-21 1-13-2-11-4-5-10-4-2 1v-5l3-1h12l6 4 6 7v3h2v-2l6 1 6 4 3 5v7l5 1 16 8 9 8 10 15 6 13 6 17 10 26 16 47 2 9-5-2-10-5-11-3h-20l-2-3 4-23v-13l-4-5-5-2-236-3 1-6 16-33 6-12 9-14 7-9 9-7 10-5 3 1 1 2-1-10 4-6 8-4 4-1 10-9z" fill="#D5D5DF"/>
<path transform="translate(335,102)" d="m0 0h16l15 3 10 4 10 7 9 9 8 14 5 17 2 15 2 30 4 11 6 9 12 14 7 10 4 11v15l-2 2h-33l-28-10-9-3h-4l-1-2v-30l8-14h12l7-4 4-7v-11l-2-4-4-2h-6l-5 4-3 6h-1l-1-12-9-5-11-11h-14l1-4 6-3h5l-8-17-6-7-3-1h-20l-9 5-7 11-5 11 4-2 7 1 3 5-3 1h-10l-3 1-1-1-2 8v17l1 17 4 13 7 9 8 7 12 5 4 1h9l11-3 3 1-11 4h-9v10l-1 3-5 3v-2l-16 4-13 5-8 6-6 10-4 10v5l-4-2-9-7-2-8-1-16-8-8-4-9-1-4v-9l3-12 8-16 9-15 3-6 1-5 2 2-1-8 4-24 6-18 7-11 7-8 10-7 12-5z" fill="#E4CACB"/>
<path transform="translate(204,326)" d="m0 0h1l2 19 3 12 5 10 7 8 3 1 1-6 4-6 4-3h7l5 3 4 8 1 9-3 9-4 5 5-6 3-4 7 12 8 7 5 2h11l7-2h4l3 13-1 4 5 4 2 1-2 2 2 2-1 3 12 4 6 1v4l-16 4-14 1-1 3h-2l-1 2-3-3 2-9-3 8-11-6-21-10-20-8-4-2-2-8 1-7 3-8-1 1-4 10 3 15 3 4-1-4 5 5v10l-4 10-9 10-10 6-8 2h-12l-8-3-7-8-2-6v-5l13-2 10-5 11-9 6-5 4-6-5 6-12 9-13 6-11 3h-15l-13-4-11-7-8-9-4-8-2-8-3-27-3-15-1-14 20-1 14-3 6-1-4 3 15-3 15-6 14-8z" fill="#F9E9E1"/>
<path transform="translate(170,272)" d="m0 0h15v2l-23 2-17 5-25 13 9-3 24-11 16-4h23l16 4 11 7h1l-9-7 2-1 8 6v-12l4 2 5 7 2 13 9 4 4 2-5-12v-2l11 1v1l-5 1 10 9 18 12 9 5 5 1 7-1 2 1v2l16-8 18-7 4 1-8 4-4 3-22 8-6 3h-10v3h-3l3 7 3 3-3 1-6-9h-1l1 8 1 5 5 11 6 8 4 5-4-2-7-7 3 6 4 5 9 6 9 3 20 2 16 9 5 5v5h-30l-11-7-7-6v-2h-2v15l-5 5 2-4 1-20-3-3-10 3h-9l-13-3 4-1 5 1h12l8-3-8-9-5-10-9-5-5-6-3-5-1 4h-2l-2 11-6 14-4-1-6-3h-7l-5 4-4 10-4-1-7-8-5-10-3-12-2-18-13 9-16 8-16 5-10 1 3-2-5 1-11 2h-20l1 2 2 17 3 17 2 20 3 10 6 10 8 7 12 6 8 2h15l16-5 11-6 9-7 5-6v3l-5 6-11 9-8 6-11 4h-9l4 13 7 6 6 2h12l10-3 9-6 7-8 4-10v-10l-3-3 1 4-4-4-4-15 3-9 2-5 2 1-4 10 1 10 1 3 16 6 24 11 14 8 5-12 1 3-3 11 2 4-9-5-8-5-27-13v12l-4 12-4 4 2-6 3-7 1-6v-9l-5-3-1 1 1 2v9l-4 11-9 10-5 4-8 4-10 2h-7l-10-3-6-5-4-8-1-9h-10l-8-2-6 1-11 7-8 10-11 22 1 2-4-1 10-21 8-11 9-7 7-4-11-7-9-9-5-11-2-9-3-26-4-19v-4l-13-1-10-5-3-3 1-4 6-1-11-8-8-8-4-7v-3h14l17-5-8-6-4-5v-3h16l12-5 18-10 14-6 12-3z" fill="#C3C8CA"/>
<path transform="translate(679,455)" d="m0 0 44 11 33 7 4 2 8 2h7v2l14 4 1 3-17 35-14 27-2 7-6-5-6 1-3 5-2 2-31 10-17 4h-3v2l-2 1 4 2-1 5-3 1-21-3-18 1-15-2-3-3 4-8 32-82 12-30z" fill="#CBDBD2"/>
<path transform="translate(545,567)" d="m0 0h1v14l-4 24 1 1h20l13 4v2l5 2 8 7 5 7 2 9-1 11-2 6 2 4 59 2 4 5v8l-3 5-5 2h-18v56l-5 5-6 1-7-3-2-4v-55h-18l-6-3-2-4 1-9 1-4-7-1-3-1h-17l-10 2v2l11 6 8 9 5 10 2 8v12l-3 10-6 10-7 7-10 5-11 3h-8l-12-3-10-6-8-8-6-13-1-4v-15l4-11 6-9 3-4-4-2-8-8v-6l2-3-2-3 3-6 4-2-1-5 5-5 10-3 17-5h3l1-10 6-35z" fill="#D3C9CA"/>
<path transform="translate(600,148)" d="m0 0 1 3-7 8-2 2 12-3 11-6 4 13v23l-6 36-5 12-8 9-10 6-13 4h-12l-16-4-6-2 7 5 16 4 1 16-4 6-8 4-10 1-9-2-11-6-7-8-2-6h-2l-1-7-1-1-16 4-19 7-13 7-3 2-4-1 5-5 15-8 24-8 17-4 1-10v-11l-3-9v-4h-8l-9-4-5-6-2-5v-9l4-8 4-3h8l6 4 3 6 5-20 5-12 16 2h18l18-3 12-4z" fill="#F9E9E1"/>
<path transform="translate(688,316)" d="m0 0 10 5 16 4 17 2 12 5 7 2 12 1 4 6v8l-5 18-3 20-4 10-8 10-12 8-6 2h-18l-12-4-13-7-7-6 7 11 10 9 2 1v2h3v2l6 1v9l-4 7-11 4-18 4-11-6-6-5-7-11-2-10 8-5 3-5-2-1-20 7-5 1 3-3 21-8h3l2-6h-5l5-6 3-1v2h2l1-13-2-6h-10l-6-3-6-8v-15l4-6 5-3 8 1 5 4 3 5v3l11-9 6-9 3-12z" fill="#F9E9E1"/>
<path transform="translate(466,337)" d="m0 0 4 4 8 14 5 14 3 20 4-7 4-4 8-1 6 5 3 8v7l-3 8-8 7-2 1h-12l-2-1-8 16-11 12-14 9-10 4-5 1h-16l-15-4-11-6-10-9-6-12-3-18-4-30h20l18-6 15-8 9-7v3l-10 9-4 3h9l13-5 4-2v5l13-3 9 1 6 2v-2l-5-2-8-3h-12l5-5 10-13z" fill="#F9EAE2"/>
<path transform="translate(318,135)" d="m0 0h20l5 3 6 8 6 13v2l-10 3-2 4 4-1h10l12 12 9 5 1 10 4-6 4-3h6l5 3 2 4v11l-5 8-7 4h-12l-7 13v30l2 3-1 6-5 6-5 1-1 3-8 3-8 1-16-8-2-9 3-4h2l1-13 13-2 2-1-9 2h-9l-12-4-9-6-7-7-5-8-3-11-1-17v-17l3-10 2 2 2-1h12l-2-4-7-1-5 2 2-6 7-13 5-6z" fill="#F9E9E1"/>
<path transform="translate(370,259)" d="m0 0 9 2 23 8 11 4-3 2-15 5h-14l-8-4 1 6 2 6-6 3-8-2-21 9 21-7 4 1-7 3 1 3-10 16-5 12-2 8-8 3 3-1 4-1v6l-3 7 2 9 5 2-1 2 8 6 7 11-6 4-4 7-9-3-12-7-20-2-13-5-8-7-5-8 1-2 9 9-4-5-6-8-4-10-1-5-1-8h3l5 8 2-1-5-5v-4h3v-3l10-1 11-5 19-7 4-4-20 8-3 2h-6l-4-2-5-2-10-9-4-3 1-6 5-12 7-9 8-5 21-7h6l2 8 1 3 15 8 12-2 4-2 4-4 4-2 3-5z" fill="#F6F9FB"/>
<path transform="translate(684,248)" d="m0 0h7l1 5-1 2 7-1h22l15 4 21 8h13l5-3-1 8-6 3-8 1 7 11 3 7v7l-6-1-4-1 6 14 1 13-2 3-4-1-11-10-2-1 6 9v1l-7-1-14-7-10-7-8 1-6-3 10 9-4 1-16-5-6-2 3 3-6-1-9-7 4 5-2 8-4 7-3-3-3-9-5 3h-3l-2 5-6 8-7 5h-2l1-7 5-12-12 8-4 2v-13l5-12 2-3 4-15 4-6 6-5 4-5 7-3h3l1-5 5-8z" fill="#F9E9E1"/>
<path transform="translate(509,473)" d="m0 0 5 1 16 8 9 8 10 15 6 13 6 17 10 26 16 47 2 9-5-2-10-5-11-3h-20l-2-3 4-23v-13l-4-5-5-2-59-1 3-1 3-26 3-21v-8l7-8 5-5 6-8z" fill="#D5D5DF"/>
<path transform="translate(512,254)" d="m0 0 2 2v7h2l6 10 8 6 9 4 11 1 10-3 5-5 1-2v-11l1-2 7 1 8 3-1 2 12 5 11 6 10 9 6 9 2 4v-2h2l5 16 8 36-1 4-10 8-7 8-5 8v3l-6 1 2-3-1-6-7-6 2-1-5-26-7-21-10-20-9-14-9 6-9 3h-15l-10-3-8-4h-2l-10 14-3 5-8-1-7-6-6-3-3-9-4 8-2 1-4-8-9-8-10-4-13-2h-16l-17 3-17 6-5 1h-7-4l-3-4 1-6 1 3 7 2h14l18-6 7-1h23 3l10 1 2-1v2l5-1 10-6 14-6 19-6z" fill="#C3C8CA"/>
<path transform="translate(140,548)" d="m0 0h12l9 2 12 7 10 8 10 6 14 3 17 2 42 2 15 2 7 3-2 6-8 16-7 18-14-2-14-8-10-4-6-1h-15l-12 2-36-13-17-6-17 1-3-3 1-3 11-4-6 1-6 3-4-1-2-4 4-4 10-4-7 2-4 2-5-1-1-3 6-7 12-5h14v-2l-16 2-8 3h-5l-5-3 3-5 6-4 9-3z" fill="#FAEAE2"/>
<path transform="translate(819,335)" d="m0 0h24l9 3 2 3 1 10 5 5 2 5-1 8 5 10 2 9-1 12-4 11-7 9 1 9-4 1-3-3v-2l-10 5-3 1h-14l-10-4-3-2-1 3-3 1-1-2h3v-4l-2-1-1 4-1-4v-3l-6-8-4-10-1-5v-9l4-13 5-9-1-1 1-8 5-6 5-3 4-10z" fill="#E3CACB"/>
<path transform="translate(702,252)" d="m0 0h13l18 4 22 8 4 1h7l6-3 2-3h2v10l-4 6-3 3 11 10 6 10 4 16v9l-3 12v9l-5-1-3-1-1 5-7 6-5 3-3 11-4 22-6 12-7 8-11 7-12 5 24 12 10 7 8 7 8 11 6 2v1l-7-1-13-3-40-7-15-3h-11l-10 3 7 2-3 2-10-3-2 1v-3l16-4 11-4 3-6v-8l-5-2v-2h-3v-2l-4-2-8-7-8-11 1-2 10 8 15 7 7 2h18l9-4 11-8 7-11 3-12 3-18 4-14v-8l-3-4v-2h-12l-15-5-4-2-17-2-16-4-9-5-3 14-4 8-6 7-7 6h-2l-4-8-4-3-8-1-5 3-3 5v15l6 9-4-2-4-5-1-2-1-12 1-4-4-11-1-5v-14l4-12 4-9 4-13 6-9 7-5 2 1-3 1-2 4-5 4-4 8-4 14-5 10-1 3-1 13 14-10h2l-1 5-5 14 11-8 6-10 6-3h2l5 11 3-3 3-9-4-8 9 6 5 2-4-4 9 3 16 5h3l-9-8-3-3 5 2 6 2 6-1 15 10 11 5h4l-4-6-1-3 4 2 10 9h3l1-2-1-13-6-15 11 3-2-10-6-11-3-5 10-1 5-2v-7l-4 3h-13l-24-9-12-3h-26l3-2z" fill="#E4CACB"/>
<path transform="translate(535,659)" d="m0 0 13 2 14 7 8 9 5 10 2 8v12l-3 10-6 10-7 7-10 5-11 3h-8l-12-3-10-6-8-8-6-13-1-4v-15l4-11 6-9 9-8 13-5z" fill="#670FB8"/>
<path transform="translate(419,660)" d="m0 0h10l8 7 14 18 11 14 2 3 1-37 5-5h9l4 2 2 4v70l-5 5-8 1-6-3-13-16-11-14-7-9-1 36-4 5-2 1-10-1-4-4v-72z" fill="#670FB8"/>
<path transform="translate(396,489)" d="m0 0 5 5 8 6 9 4 8 2h18l12-3 13-7 4-3 1 8 2 1-2 13-6 40-1 3h-68l-1-1-3-38v-29z" fill="#F7FAFC"/>
<path transform="translate(674,659)" d="m0 0h56l5 2 3 6-1 8-4 4-4 1h-43v41h44l6 3 2 5-1 8-5 4-22 1h-33l-8-2-3-5v-69l3-5z" fill="#670FB8"/>
<path transform="translate(254,660)" d="m0 0h61l4 4 1 9-3 5-3 2-45 1v40l46 1 4 4 1 8-3 6-4 2h-59l-5-4-1-3v-69l4-5z"/>
<path transform="translate(165,660)" d="m0 0 9 1 4 5 11 22 9 19v2h2l2-6 12-25 8-15 4-3h8l5 5 1 7-13 28-18 36-5 5-2 1h-7l-5-5-10-19-13-26-9-21 1-6 4-4z" fill="#010002"/>
<path transform="translate(742,130)" d="m0 0h12l10 4 8 7 5 10 1 3v12l-6 12-7 7-12 5h-10l-11-4-9-8-5-10-1-3v-10l3-9 7-9 8-5z" fill="#F9E9E1"/>
<path transform="translate(251,385)" d="m0 0 3 4 7 10 8 6 3 1h11l7-2h4l3 13-1 4 5 4 2 1-2 2 2 2-1 3 12 4 6 1v4l-16 4-14 1-1 3h-2l-1 2-3-3 2-9-3 8-11-6-21-10-20-8-4-2-2-8 1-7 3-8h7l9-4 5-6z" fill="#F6F9FB"/>
<path transform="translate(853,541)" d="m0 0h3l1 3-1 17-4 10-4 4v19l-5 13-2 3 10-2 15-2h16l15 3-2 2-11-2h-23l-26 4-18 4-13 2-44 8h-2l-1-11v-3l18-8 3-2h6l4 2 3-7 27-10 10-4 3-4 2-10 6-15 13-12z" fill="#E4CACB"/>
<path transform="translate(285,323)" d="m0 0 3 1v3l13 6 7 2 1-2 3 3 15 5 4-2 11-4v6l-3 7 2 9 5 2-1 2 8 6 7 11-6 4-4 7-9-3-12-7-20-2-13-5-8-7-5-8 1-2 9 9-4-5-6-8-4-10-1-5-1-8h3l5 8 2-1-5-5v-4h3z" fill="#F9E9E1"/>
<path transform="translate(776,692)" d="m0 0h8l11 1h102v8l-96 1-10 4-6 4-2 5 1 7 5 5 8 1 25 1 3 1h5v-2h67v8l-5 1-46 1h-26l-17-1-9-2h-12l-13-4-4-2-4-8-2-9 2-6h2l2-7 5-5z" fill="#FCF6F2"/>
<path transform="translate(335,660)" d="m0 0h9l5 4 1 3 1 54h39l8 2 3 4v9l-4 5-3 1h-58l-5-3-1-2v-72z" fill="#010001"/>
<path transform="translate(545,443)" d="m0 0h15l11 4 10 5-2 5-5 11-5 18-5 30-3-2v7l-3-1-13-24-8-10-10-7-16-7 1-5 11-10 13-10z" fill="#F6F9FB"/>
<path transform="translate(824,362)" d="m0 0h13l9 4 7 6 6 12v14l-5 10-7 7-8 4-3 1h-13l-11-6-7-8-3-7v-13l5-10 5-8 8-5z" fill="#F5F7F9"/>
<path transform="translate(594,659)" d="m0 0h36l24 1 4 5v8l-3 5-5 2h-18v56l-5 5-6 1-7-3-2-4v-55h-18l-6-3-2-4 1-9 4-4z" fill="#670FB8"/>
<path transform="translate(790,544)" d="m0 0 3 1-1 14-6 12 6-10h1l-1 10-4 9v1l3-3-1 5-5 9 2-1-2 5-8 7-16 7-18 5h-6l-4-5-3-8 1-9 10-25 2-13 4-4 5 1 3 3v11l-2 10 16-8 12-11 8-12z" fill="#F9E9E1"/>
<path transform="translate(462,443)" d="m0 0h1l2 13 5 12v9l-6 9-10 6-9 3-6 1h-10l-14-4-8-6-5-6-1-3v-9l6-9 1-7 14 3h12l12-3 13-7z" fill="#FAEAE2"/>
<path transform="translate(512,254)" d="m0 0 2 2v7h2l6 10 8 6 9 4 13 1v2l-9 1 11 1 1 3-1 1h-12v2l-10-2-10-5h-2l-10 14-3 5-8-1-7-6-6-3-3-9-4 8-2 1-4-8-9-8-10-4-13-2h-16l-17 3-17 6-5 1h-7-4l-3-4 1-6 1 3 7 2h14l18-6 7-1h23 3l10 1 2-1v2l5-1 10-6 14-6 19-6z" fill="#C4C8CA"/>
<path transform="translate(333,443)" d="m0 0h24l15 5 3 3-6 4-7 4-2 3-1 8-9 4-7 4-4 5h-2v2h-2l-2 4-7 11-6 1-7-18-7-12-11-12-3-4 16-6 19-5z" fill="#F7FAFC"/>
<path transform="translate(143,592)" d="m0 0 9 1 10 4 8 1 30 11 12-2h15l12 3 15 8 3 3-5-1-14-8-7-2-8-1h-9l-16 4-17 7-24 14-29 15-21 11v3l12 12 10 7-4 1-9-7-10-8-7-8-7-7-8-7-9-6 1-2h10l5 1 3-1v2l40-9 9-2v-2l5-1 14-3 1-5-3-1-1-3-1 3-7 1v-2l-3-1h2l-1-7-2-3 5 2 7 2-2-3-9-8-5-5z" fill="#C3C8CA"/>
<path transform="translate(106,723)" d="m0 0 12 1 3 2-2 14v9l-2-1v4l1 6v7l-3 6-3 15 2 12 1 4-2 3h-12l-16-2-2-3-2-16-1-15v-15l2-4 19-1 2-2 1-23z" fill="#FDF7F3"/>
<path transform="translate(693,446)" d="m0 0h11l37 7 28 5 10 3 17 5 10 5-2 2-7 2-3 1-48-10-41-9-8-2 9 3 10 2 7 2 36 8 11 2 9 2h2v2l5-1 3 2 6 2v3l-3 1v-2l-16-2-13-2-5-2-3-1-53-12-21-6h-2l-12 30-19 49-16 40-2 1 1-8 12-32 16-41 6-17 4-10 6-16 4-2 9 3-7-3v-1z" fill="#F6F9FB"/>
<path transform="translate(790,542)" d="m0 0 5 2 1 7-1 6v15l-3 15-3 9 8-2 4 1-7 3h-3l-1 5-1 3-8-2-5 1-12 6-7 3 1 2v11l13-3 33-6 9-1-4 2-22 5-33 6-10 4-8 4-1 2 6 2 20 9 9 4 5-2 5-5 5-3 3-2h2l8-5 12-5 5-3 10-4 4-2-1 4 10-5h3l2 4-15 5-29 14-21 11-1 1 44 18 8 5v2h7l8 3 6 5 36 1 2-5 2-2-1 5-1 2 8-1v3h-106l-6-1h-8l-4 1 3-3h71l-9-5h-7l-3 5h-2l1-10-19-8-27-11-30-13-25-12-6-3 1-4h2l-1-3 9-2 4-2 1-7-1-3 9 1 21-6 16-8 6-7h-2l2-4 4-9-4 4 2-5 4-12v-5l-6 11-2 1 2-5 5-10 1-14-4-1z" fill="#DBC9CA"/>
<path transform="translate(269,484)" d="m0 0 1 2-3 12v40l2 17 2 11h3l14-2 3-3-1 4v10l12 57 5 21-1 4-5-18-3-12h-3l-8 8-4 9-1 8 23 4v2l-9-1h-7l-1 1-13-1-11-2 4-2 5-1-6-16-6-8-7-6v-1l16 1 10-24 8-14 1-2-1-6-17 1-19-1v-1l13-2 4-1-5-30-4-18-2-17v-10h2l2 23 1 6 2-31 3-10z" fill="#C3C8CA"/>
<path transform="translate(541,607)" d="m0 0 5 4 8 16 1 4v24l-2 3-7 2h-11l-12 2-10 5-1 1h-5l-3-5v-1l14-1-19-1-2-2 1-5 1-1 29-2 4-1-8 1h-24l-2-2 1-5 3-2 27-3 8-2-30 4-3-2v-5l5-3 28-8 7-4-4 2h-1l1-10z" fill="#F9E9E2"/>
<path transform="translate(261,335)" d="m0 0 4 5 4 6 8 5 4 4 6 11 6 7-9 3h-12l4 1h9l10-3 4 4-1 8-8 13-6 5-9 2-8-3-10-10-4-8v-9l6-25z" fill="#F9E9E1"/>
<path transform="translate(468,444)" d="m0 0h12l6 4 6 7v3h2v-2l6 1 6 4 3 5-1 12-7 11-6 7-5 5-3 4-1 13-5 38-1 3-3 1h-29l-5-1v-1h24l1-3 1-1 4-28 5-23 4-21 1-13-2-11-4-5-10-4-2 1v-5z" fill="#D4D4DE"/>
<path transform="translate(222,412)" d="m0 0h1l4 15 2 2-1-4 5 5v10l-4 10-9 10-10 6-8 2h-12l-8-3-7-8-2-6v-5l13-2 10-5 11-9 6-5z" fill="#FAEAE2"/>
<path transform="translate(5,349)" d="m0 0 5 1 5 4 3 3 5 3 1 2 13 2 4 2-2 1-7-2-9 1v3l2 1v3 11l2 4 4 2 10 1-5 4-9 9 8-6 16-9 5-2h3l-2-5 4 4 1 3-4 8-5 3-2 4-11 8-12 6h-3l2-4 9-4h3v-2l8-5h2l2-4 6-8 1-2-16 8-13 9-11 10 4 2v2h-7l-6-8-4-8-4-14 1-10 1-6-2-6-1-7v-10z" fill="#C6C9CB"/>
<path transform="translate(390,443)" d="m0 0 11 6-4 2-6 5-4 10v22l3 23v4h2l2 8 2-4 3 38 44 1v1h-63l-7-1v-1h16l-3-38-2-11-2-2 1 10v13h-1l-3-24-4-6-9-12-3-9-2-7v-6l4-6 8-4 4-1 10-9z" fill="#D4D4DD"/>
<path transform="translate(529,348)" d="m0 0h10l30 7 21 6 12 5 8 7 1 6-1 2 5-2 4 3v6l-3 2h-8l-5-3-6-1-80-32 3-3z" fill="#F7F9FB"/>
<path transform="translate(466,448)" d="m0 0 11 4 5 6 2 13-2 17-5 23-5 27-3 21h-1v-11l5-33 2-13-2 2-1-10-8 6-11 5-9 2h-18l-13-4-10-6-7-7-1-2h2l-1-5 2-9 2 4 6 9 10 6 9 3h17l12-3 4-3 5-4 4-4 4-3 1 2v11h2l-3-23-4-11-2-4z" fill="#D2D3DC"/>
<path transform="translate(484,442)" d="m0 0 22 5 12 4v2l6 1 2 2-13 11-2 5 10 3 11 6 9 8 9 14 8 15v2h2v-10l2 3 1 2 5-29 6-21 6-11 3-2-2 5-5 11-5 19-3 22-1 19v13l2 6 3 12 17 50 3 9 5 7 6 1v2h2v-3l9-4 9-3 3 1-11 8-8 9-8 13-3 7-4-2 3-12-1-11-4-8-7-7-7-4 3-1 10 6-16-47-10-28-8-20-5-13-9-15-8-9-10-6-14-6-1 2v-9l-4-6-10-4v2h-2l-4-7-6-5-2-2z" fill="#C4C9CB"/>
<path transform="translate(0,499)" d="m0 0 3 4 8 18 11 22-4 8-1 8 4 6 2 11 4 8 1 5-20 1-8 2z" fill="#F6F9FB"/>
<path transform="translate(300,382)" d="m0 0h2l4 5 14 9 28 1 3 4 4 8-1 3h-3l-1 2v-2l-11-2-16-6-10-5 10 6 7 3-1 3h-15l-10-3 14 5 24 5 24 3 11 1 3 9-19-2h-6v-2l-11-1-14-3-6 1-7-2-2-3-16-5-3-7-1-5 4-5v-11z" fill="#F6F9FB"/>
<path transform="translate(530,680)" d="m0 0h12l6 3 7 8 2 6v7l-3 8-4 5-8 4h-12l-8-4-6-9-1-3v-9l5-10 7-5z" fill="#F5F7F9"/>
<path transform="translate(742,553)" d="m0 0h1v11l-1 2h-2l-2 9-5 10-9 3-12 1-1-4h-6l-5 4-12-1h-7l-5-1-14-1-28-4-5-3-1-4-1-8 1-2 4 1-1 11 8 2 10 1 18-1 21 3 2-1 1-4-5-1 1-2h2v-2l30-8 21-7z" fill="#C3C7C9"/>
<path transform="translate(776,692)" d="m0 0h8l11 1h102v8l-96 1-10 4-7 5-4-1v-3l-5-1 2-4-11 1-2-2 6-7z" fill="#F9E9E1"/>
<path transform="translate(35,152)" d="m0 0h4l5 8v2l11 1 5 3-2 5-5 6 1 14-1 1-7-1-5-3-4 2-5 3h-6l-1-14-8-7v-4l12-5z" fill="#E4C9CA"/>
<path transform="translate(838,623)" d="m0 0h3l2 4-15 5-29 14-21 11-1 1 44 18 8 5v2h7l8 3 6 5 36 1 2-5 2-2-1 5-1 2 8-1v3h-106l-6-1h-8l-4 1 3-3h71l-9-5h-7l-3 5h-2l1-10-19-8-27-11-30-13-21-10 4-2 5-1-3 4 6 2 20 9 9 4 5-2 5-5 5-3 3-2h2l8-5 12-5 5-3 10-4 4-2-1 4z" fill="#C3C8CA"/>
<path transform="translate(545,608)" d="m0 0h22l13 5 10 9 4 6 2 9-1 11-2 6 2 4-1 2-6 2v-2l-8-3-2-12-2-8-6-7-10-6-7-2-4-7 1-2 12 3 11 6 7 7 4 6 5 2-2-7-7-9-5-4-9-4h-7l-2 1-6-1v-2l-5-1z" fill="#D5D4DE"/>
<path transform="translate(115,361)" d="m0 0h2l5 26 2 20 3 10 6 10 8 7 12 6 8 2h15l16-5 11-6 9-7 5-6v3l-5 6-11 9-8 6-11 4h-9l4 13 7 6 6 2h12l10-3 9-6 7-8 4-10v-10l-3-3 1 4-4-4-4-15 3-9 2-5 2 1-4 10 1 10 1 3 16 6 24 11 14 8 5-12 1 3-3 11 2 4-9-5-8-5-27-13v12l-4 12-4 4 2-6 3-7 1-6v-9l-5-3-1 1 1 2v9l-4 11-9 10-5 4-8 4-10 2h-7l-10-3-6-5-4-8-1-9h-10l-8-2-6 1-11 7-8 10-11 22 1 2-4-1 10-21 8-11 9-7 7-4-11-7-9-9-5-11-2-9-3-26-3-15z" fill="#CCC9C9"/>
<path transform="translate(63,220)" d="m0 0h16l9 4 7 8 2 6-1 9-5 9-5 6-2-1 7-9 3-7v-9l-3-6-6-5-5-2h-18l-14 5-11 8-6 7-4 11-2 10-1 4 3 5v3l8 5 8-1 4-2 2 3-5 1-10 4-15 9-11 7-8 5v-11l7-7 17-28 2-13 4-8 9-9 14-8z" fill="#DBCACC"/>
<path transform="translate(700,690)" d="m0 0h25l5 3 2 2v11l-4 4-25 1-7-1-4-4v-10l4-5z" fill="#670FB8"/>
<path transform="translate(279,691)" d="m0 0h30l5 4 1 8-3 6-3 2h-30l-5-5v-9z" fill="#000001"/>
<path transform="translate(0,664)" d="m0 0 8 6 12 10 10 7 9 7 4 4v2l-4-1-1 2h-2l-2-6-2-1v2h-2l-1 2 1-6h-3l-4 8-1-2h-2l1-2h2l-1-4-4-2-3 9-1-4v-2l-2-1v-2h-3l-2 5-1 12 2 11-7 2-1-1z" fill="#D4C7C6"/>
<path transform="translate(143,592)" d="m0 0 9 1 10 4 8 1 30 11 12-2h15l12 3 15 8 3 3-5-1-14-8-7-2-8-1h-9l-16 4-6 1 3-3-24-8-2 1 3 9v6l-6 5-18 5-5-1 4-1 9-3 6-1 1-5-3-1-1-3-1 3-7 1v-2l-3-1h2l-1-7-2-3 5 2 7 2-2-3-9-8-5-5z" fill="#D5C7C6"/>
<path transform="translate(466,448)" d="m0 0 11 4 5 6 2 13-2 17-5 23-5 27-3 21h-1v-11l5-33 2-13-2 2-1-12h2l-3-23-4-11-2-4z" fill="#D5D5DF"/>
<path transform="translate(278,191)" d="m0 0h1l-1 14-5 24-8 26-1 5h-2l-5-11v-17l4-11 9-16z" fill="#F7F9FA"/>
<path transform="translate(360,379)" d="m0 0 7 1 4 3 1 3v7l-4 1 5 5 2 10v6h-8l-8-4-5-6-3-10 2-10 4-5z" fill="#F9E9E1"/>
<path transform="translate(446,416)" d="m0 0h3l-1 9-6 9-8 5h-10l-7-4-6-8-2-5v-4l8 1h17z" fill="#E4C9CA"/>
<path transform="translate(38,704)" d="m0 0h1l3 16 5 3v2l4 2 2 2-1 3-12 3-8 1-10 1-4 1-8 1-5-2-4-9 9-3 6 1 3-6 4 4h5l4-2 7 1-2-14z" fill="#F9E9E1"/>
<path transform="translate(778,603)" d="m0 0 4 1 10 8 11 5v2l-43 8h-2l-1-11v-3l18-8z" fill="#F7F9FB"/>
<path transform="translate(643,412)" d="m0 0h3l-2 4-7 2-16 8-16 10-10 9-7 8-8 16-5 14-3 21-3 42-2-1-1-4v-13l2-28 3-18 5-17 8-14 9-10 12-10 19-11z" fill="#F8F7F7"/>
<path transform="translate(182,403)" d="m0 0h2l1 9-3 9-5 6-5 2h-7l-7-4-7-8-2-6 16-1 13-5z" fill="#E4C9CA"/>
<path transform="translate(819,337)" d="m0 0h20l12 3v8l-3 1-9 1-4 6-13 2-10 5-7 8-5 10-2 14-2-1v-8l4-13 7-10 5-4 10-4 6-1-2-5-8-3v-7z" fill="#F7FAFC"/>
<path transform="translate(289,585)" d="m0 0h1l5 21v7l-10 8-6 9-1 4-1 19-2-3-1-12 2-7v-5l-1-1-1 4h-2l1-9 7-17z" fill="#D5D5DF"/>
<path transform="translate(373,223)" d="m0 0 4 1 2 6 1 5 2 2 3 9 2 13 4 2 1 3 2 2-9-2-12-4h-4l-1-2 1-16 2-7-2-1 2-8z" fill="#D4C7C6"/>
<path transform="translate(557,768)" d="m0 0h11l7 2 3 5v11l-5 5-2 1h-15l-1-1v-22z" fill="#670FB8"/>
<path transform="translate(553,219)" d="m0 0h8l14 3 13 1-1 6-9 10-8 2-7-2-7-8-3-9z" fill="#D4C7C6"/>
<path transform="translate(554,624)" d="m0 0 5 2 11 7 6 9 2 5v8l-22 2v-23z" fill="#FAEAE2"/>
<path transform="translate(95,523)" d="m0 0h5l4 9 1 4-8 3-19 5h-4l-5-12 3-2z" fill="#F5F8FA"/>
<path transform="translate(297,625)" d="m0 0 2 2 7 28-1 2-23-4-1-4 3-10 4-6 7-7z" fill="#FAEAE2"/>
<path transform="translate(310,397)" d="m0 0 5 2 15 7 21 6 5-2 6 4 14 3 1 5h-11l-24-3-24-5-16-6 3-1 9 3h15l1-2-9-3-11-7z" fill="#D4D5DE"/>
<path transform="translate(394,452)" d="m0 0 2 1-5 6-2 5-1 7v9l2 18 1 2 5-28 4-10 5-4 2-5h1v6l-6 9v9l4 7 7 6 11 4 5 1h10l13-3 4-2 3 1-8 4-9 2h-17l-11-4-9-6-6-9h-1l-1 10h-2v39l-2-4-1-8h-2l-3-19-1-8v-22l4-10z" fill="#C3C8CA"/>
<path transform="translate(295,617)" d="m0 0h2l1 7-7 2-4 5-5 11v10l23 4v2l-9-1h-7l-1 1-13-1-11-2 4-2 5-1-2-6-2-11-8-9 4-2 4 1 2 4h3l1-5 2 2-1 8-1 10 1 6 1-16h3 2l2-4 9-11z" fill="#C5C9CB"/>
<path transform="translate(402,450)" d="m0 0 4 1 1 5-4 5-3 3-3 8-3 15-2 13-2 3-2-12-1-11v-9l2-10 4-6 5-4z" fill="#D5D5DF"/>
<path transform="translate(313,214)" d="m0 0 9 1h10l12-1-1 9-5 7-4 2h-9l-6-4-5-8z" fill="#E4C9CA"/>
<path transform="translate(484,442)" d="m0 0 22 5 12 4v2l6 1-5 5-6 4h-3-2v-2l-4-1-10-4v2h-2l-4-7-6-5-2-2z" fill="#D4C7C7"/>
<path transform="translate(778,659)" d="m0 0 9 3 36 15 6 4v2h7l8 3 6 5 36 1 2-5 2-2-1 5-1 2 8-1v3h-106l-6-1h-8l-4 1 3-3h71l-9-5h-7l-3 5h-2l1-10-19-8-27-11-2-1z" fill="#D4C8C8"/>
<path transform="translate(139,693)" d="m0 0 10 3 8 2v1h-7l3 3v6l-6 2v-2h-7l2-1v-2h-9l4-2h-10l-7 5-6 9h-2l-1-6 8-10 7-5 12-2z" fill="#F7E7E0"/>
<path transform="translate(734,613)" d="m0 0 9 2 1 8-2 4h6v1l6 1-2 2-12 5-7 2h-6l-8-4 1-4h2l-1-3 9-2 4-2 1-7z" fill="#D3C7C6"/>
<path transform="translate(149,698)" d="m0 0 12 1 5 1v2h5l1 5-10 4h-2v2l-8 6-4 4h-13v-2h2v-2l8-5 1-2-9 3 3-3 12-4v-8l-3-1z" fill="#FBF4F0"/>
<path transform="translate(706,380)" d="m0 0 9 3 10 3 11 1-2 5-6 7-4 2-8-1-6-4-4-8z" fill="#E3C9CA"/>
<path transform="translate(259,341)" d="m0 0h1v10l-6 25v9l5 9 8 8 8 3 9-2 6-5 7-12h1v12l-4 6-11 3h-11l-8-4-8-9-4-7-4 5-4 4-2-1 6-7 2-7-1-9-3-6 1-2 3 1 4-8z" fill="#E5CACB"/>
<path transform="translate(139,541)" d="m0 0 2 2v3l6-1 17 4 6 3 2 2 8 6 11 8h2v2l9 1 10 2 25 2 37 1h14l2 7-2 1-7-3-15-2-42-2-23-3-10-3-11-7-10-8-12-6-18-3-2-5z" fill="#CFC7C7"/>
<path transform="translate(701,768)" d="m0 0 5 2 7 9 1-9 4-2 2 2v20l-1 2-5-1-8-10-1 10-5 1-1-2v-20z" fill="#200438"/>
<path transform="translate(678,768)" d="m0 0h12l4 2 2 4-1 7-3 4h2l2 3-1 4-5-1-7-9v-4l7-1v-3h-9v16l-1 2-5-1v-21z" fill="#200437"/>
<path transform="translate(734,768)" d="m0 0 5 2 8 10v-9l2-3 4 2v20l-1 2-5-1-8-10-1 10-5 1-1-2v-20z" fill="#200438"/>
<path transform="translate(659,768)" d="m0 0 4 2 9 19-2 3h-21l-1-4 8-17z" fill="#660EB6"/>
<path transform="translate(381,768)" d="m0 0 4 2 8 16 1 5-1 1h-21l-1-5 8-16z" fill="#660EB6"/>
<path transform="translate(237,768)" d="m0 0 4 2 9 19-2 3h-21l-1-3 9-19z" fill="#660EB7"/>
<path transform="translate(515,768)" d="m0 0 3 1 9 18-1 5h-21l-1-4 8-17z" fill="#660EB7"/>
<path transform="translate(436,768)" d="m0 0 4 2 7 9 1-9 4-2 2 2v21l-5 1-9-11-1 10-4 1-1-1v-22z" fill="#250541"/>
<path transform="translate(321,768)" d="m0 0 5 2 7 9h1v-9l4-2 2 1v22l-5 1-9-11-1 10-4 1-1-1v-22z" fill="#210438"/>
<path transform="translate(355,768)" d="m0 0h8l2 4-2 2-10 1-2 2v7l5 2 5-1v-2l-5-1 1-5h9l1 1v7l-4 5-4 2h-7l-6-4-2-4v-8l5-6z" fill="#670FB8"/>
<path transform="translate(468,768)" d="m0 0h8l2 1-1 5-11 1-2 3v5l4 3 6-2-5-2 1-4 1-1h9l1 6-3 5-3 3-9 1-5-3-3-4-1-7 3-6 4-3z" fill="#670FB8"/>
<path transform="translate(157,768)" d="m0 0h12l5 3 1 2v7l-3 4 3 3-1 5-4-1-7-8-1-4 2-2 5-1v-1l-9-1v17l-4 1-1-1v-22z" fill="#210439"/>
<path transform="translate(56,389)" d="m0 0h2l-2 5-7 9-8 5h-2v2l-13 6-1 3h-9l3-5 11-10 15-10z" fill="#F8E9E2"/>
<path transform="translate(408,768)" d="m0 0h9l1 5-1 1-12 1-1 7 2 3 4 1 4-2-4-2 1-5h9l1 1v6l-4 6-4 2h-7l-6-4-2-4v-8l3-5z" fill="#670FB8"/>
<path transform="translate(533,768)" d="m0 0 4 2 7 8v2h2v-11l3-1 3 3-1 20-4 1-8-9-3-3v12l-5-1v-21z" fill="#210439"/>
<path transform="translate(767,768)" d="m0 0h8l2 4-1 2-11 1-2 2v8l6 1 4-2-5-2 1-4 1-1h8l2 2-1 6-5 6-9 1-5-3-3-4-1-7 3-6 4-3z" fill="#660EB6"/>
<path transform="translate(619,169)" d="m0 0 2 4 1 12-3 15 1 7 1 4-4 2-4 16-5 10-7 7-12 7-14 4-7 1-1 5h-1v-5l-10-1-9-4-7-5 2-1 14 5 9 2h12l15-5 10-7 6-8 4-10 6-36z" fill="#E3C9CA"/>
<path transform="translate(321,107)" d="m0 0 4 1 7 4 1 3-11-2-9 1-10 6-8 8-2 3 6 4-1 3-8-2-5 12-5 19-3 12-2 1 4-24 5-16 6-11 9-10 7-6 11-5z" fill="#F8F4F3"/>
<path transform="translate(779,461)" d="m0 0 9 1 13 5 6 3v2l10 3 5 2-1 3 1 3-3 4h-13l-8-3-1-5 5 2 4 2v-2h-3v-2l-6-1-1-4 8-2-4-3-13-5-8-2z" fill="#DCCACC"/>
<path transform="translate(544,616)" d="m0 0v3l-10 5-25 7-4 2v5l4 1 35-5-2 2-19 4-21 2-3 3 1 4h24l17-2-2 2-11 2-29 2-1 5 1 1 22 1-3 2-13 1 2 4 3 2-2 1-5-4-7-7v-6l2-3-2-3 3-6 4-2-1-5 5-5 30-9 2-3 1 2z" fill="#E4C9CA"/>
<path transform="translate(375,284)" d="m0 0 6 3-3 2-11 7-10 10-7 12-3 9-1 6v14l-4 2-3-2 2-6v-5l-6 3-2-1 6-4h4l1-8 7-16 9-14-4-1 6-3-20 7-3-1 23-10 8 2 6-2z" fill="#C5C9CC"/>
<path transform="translate(626,768)" d="m0 0h17l2 4-1 2h-14l1 12 13 1 1 3-1 2h-19l-1-2v-20z" fill="#1F0435"/>
<path transform="translate(816,346)" d="m0 0 9 1 4 5-1 3-12 3-8 5-7 10h-2l2-5 1-3-1-1 1-8 5-6 5-3z" fill="#E4C9CA"/>
<path transform="translate(297,768)" d="m0 0h16l3 1-1 5h-14l1 12 13 1 1 4-1 1h-19l-1-6v-15z" fill="#07000C"/>
<path transform="translate(204,768)" d="m0 0 4 2 1 14 4 2 3-2 1-14 4-2 2 2v14l-3 6-4 2h-7l-4-2-3-7v-13z" fill="#660EB6"/>
<path transform="translate(454,376)" d="m0 0h8l6 4 3 4-1 4-5-5h-1l1 2v6l-2 4-4 2-5-1-4-5v-5l5-6-5 1-2 5-2 1 2-6 4-4z" fill="#D2C7C6"/>
<path transform="translate(519,224)" d="m0 0 2 2 1 5-2 18-4 7-1 3 1 4h-2l-1-7-1-1-16 4-19 7-13 7-3 2-4-1 5-5 15-8 24-8 17-4 1-10z" fill="#C9CACD"/>
<path transform="translate(391,377)" d="m0 0 8 1 6 4 1 4-2 10-3 2-7-1-2-2v-10l4-3-6 1-4 7-3-1 2-7z" fill="#D3C7C6"/>
<path transform="translate(514,355)" d="m0 0 7 2 16 8 25 10 17 7v2l3-1v2l3-1v2l3-1 8 4-1 3-14-5-3-2-7-2-10-4-29-12-14-6-4-3z" fill="#DDDEE6"/>
<path transform="translate(591,618)" d="m0 0 5 5 1 2 6 1v2h2v-3l9-4 9-3 3 1-11 8-8 9-6 9h-2l-4-18-4-6z" fill="#D2C7C6"/>
<path transform="translate(28,590)" d="m0 0 7 1v2h9v2l4 2 2 6 2 1 1 1 1-3 2 4h3l1 2 5 1 2 4-1 6-2 8h-1l-1-12-1-3-2 1 3 4-1 4-7-12-3 2-15-15-8-4z" fill="#D2C7C6"/>
<path transform="translate(540,180)" d="m0 0h10l5 6v5l-2-1-3 6-4 3-6-2-1-1v-7l2-4-5 5-2 1v-5l4-5z" fill="#D3C7C6"/>
<path transform="translate(500,180)" d="m0 0h8l6 4 2 6-5-2-2-2h-6l-3 3-2 5v6l4 6 4 2-1 4-5-2-5-3-3-7v-9l4-8z" fill="#FCF6F2"/>
<path transform="translate(697,455)" d="m0 0 8 1 41 9 39 8 11 3 7 3v2h3v2l-6-2h-4l-1-2-10-2-4-1v-2l-5 1-6-2-11-2-28-6-18-4-7-2-9-2z" fill="#C5CDCC"/>
<path transform="translate(185,273)" d="m0 0 15 2 12 5 8 6 2 4-9-6-8-4-13-3h-23l-16 4-24 11-7 3-3-1 22-12 13-5 15-3z" fill="#F7FAFC"/>
<path transform="translate(122,768)" d="m0 0 3 1 6 12 3-4 4-8 4-1 1 5-8 16-2 3-4-1-8-16-1-6z" fill="#670FB8"/>
<path transform="translate(547,611)" d="m0 0h4v2h7l1-1h7l12 6 8 9 4 8-1 3-6-3-7-9-6-5-11-5-11-3z" fill="#C3C8CA"/>
<path transform="translate(182,364)" d="m0 0h8l6 4 1 5h-2l-1 7-4 3-6-1-3-4v-5l3-3h2l-1-2-4 2-3 6h-1v-6z" fill="#D3C7C6"/>
<path transform="translate(701,343)" d="m0 0 7 1 3 4 1 8-2-1-1-3-3 7-4 3-6-2-2-8-2 1 2-5 4-4z" fill="#D4C7C6"/>
<path transform="translate(599,188)" d="m0 0h7l5 5 1 7-2 1-4-7v2l-1 7-3 4h-5l-3-4v-7l-1-3z" fill="#D2C7C6"/>
<path transform="translate(425,273)" d="m0 0h16l16 3 10 5 7 7 3 5-1 3-7-10-10-6-10-3-6-1h-19l-15 3-24 8h-7l-3-3 1-2 3 1h7l26-8z" fill="#F7F9FA"/>
<path transform="translate(466,448)" d="m0 0 11 4 5 6 2 13-2 17-5 23-5 27-3 21h-1v-11l5-33 2-10 2-6 3-14 1-8v-12l-3-6-7-6-5-3z" fill="#C3C8CA"/>
<path transform="translate(227,398)" d="m0 0 2 1-4 10 1 10 1 3 16 6 24 11 14 8 5-12 1 3-3 11 2 4-9-5-8-5-27-13v12l-4 12-4 4 2-6 3-7 1-6v-9l-5-3-7-2 2 6-4-4-4-15 3-9z" fill="#C4C8CA"/>
<path transform="translate(269,484)" d="m0 0 1 2-3 12v40l2 17 1 10-2-2-5-24-4-21-1-11v-10h2l2 23 1 6 2-31 3-10z" fill="#C4C8C9"/>
<path transform="translate(493,496)" d="m0 0v3l-3 4-8 56h37l1-14 3-18h1l-1 14-2 18h16l3 2-63-1 3-1 3-26 3-21v-8z" fill="#C3C8CA"/>
<path transform="translate(335,486)" d="m0 0 1 3-6 9-8 13-8 16-14 29h6v1l-14 3 3-3h3l3-9 16-33 2-4-1-9-2-8 3 1 2 5h5l2-5z" fill="#C3C8C9"/>
<path transform="translate(134,369)" d="m0 0 6 1 5 5 1 2-2 9-3 3-5-1-3-4 1-7 3-4-5 3-3 5h-1v-6l4-5z" fill="#D3C7C6"/>
<path transform="translate(301,182)" d="m0 0 4 1-3 1v9l2 2 4 2h-7l-5 2-1 7 2 5 2 9 6 10 6 8-4-2-7-7-5-8-3-11v-14l1-2h2l3-9z" fill="#FCF6F2"/>
<path transform="translate(279,341)" d="m0 0 2 3 5 10 9 10h-3l-8-8 3 6 4 5 9 6 9 3v1h-8l-2 4-3-5-3-1-8 3h-9l-13-3 4-1 5 1h12l8-3-8-9-5-10-2-2h3z" fill="#E3C9CA"/>
<path transform="translate(603,768)" d="m0 0 4 2v17h14l1 3-1 2h-19l-1-2v-20z" fill="#670FB8"/>
<path transform="translate(255,768)" d="m0 0 4 2v17h14l1 4-1 1h-19l-1-3v-19z" fill="#670FB8"/>
<path transform="translate(180,768)" d="m0 0h17l2 1-1 5-6 1-1 16-4 1-1-1v-17h-7v-5z" fill="#1B032E"/>
<path transform="translate(289,260)" d="m0 0 1 4h1l4-1 15-1 2 2-16 6-8 6-6 10-4 10-1-3 5-12 1-4h2l-2-10 3-5z" fill="#D3C8C8"/>
<path transform="translate(349,180)" d="m0 0h8l5 4 2 7-3-1-2-2-1 6-3 3h-5l-3-4 1-6 4-2v-2l-5 3-4 4 2-7z" fill="#D1C8C7"/>
<path transform="translate(171,602)" d="m0 0 24 8 1 2-7 3h-17l-4-9 1-3z" fill="#CCDCD3"/>
<path transform="translate(557,768)" d="m0 0h11l7 2 3 5v9l-4-2-2-4-2-3h-9l-1 10-2-3h-3v-13z" fill="#1F0435"/>
<path transform="translate(746,351)" d="m0 0h8l3 4 1 4-2 3-3-4-1-1v7l-5 5-5-2-1-3v-8z" fill="#D3C7C6"/>
<path transform="translate(582,265)" d="m0 0 10 3 16 8 9 8 7 14h-2l1 5-2-2-6-12-8-8-14-8-14-6z" fill="#C8CCCF"/>
<path transform="translate(698,254)" d="m0 0h22l15 4 23 9 4 2h-7l-30-10-4-1h-23l-11 3 5-5z" fill="#F8F7F7"/>
<path transform="translate(619,194)" d="m0 0 4 5 3 4 1 8-4 9-5 5-4 1 2-13 2-2h3l-3-7z" fill="#FAEAE2"/>
<path transform="translate(553,622)" d="m0 0 7 1 10 6 7 8 3 13 1 5-1 2 9 2v1l-8-1-3-1h-17l-10 2-1 2-5-1 1-2 13-3 7-1h12l-2-11-6-10-11-7-6-4z" fill="#C9C8C9"/>
<path transform="translate(352,384)" d="m0 0 1 3-1 8 3 10 5 6 7 3 8 1-3-16-6-6h6l-1-9 2 1 5 33 3 12h-2l-3-9v-4h-7l-9-3-7-6-5-11h2l-2-6-3-3h5z" fill="#DCC9CA"/>
<path transform="translate(378,288)" d="m0 0 3 1-13 10-8 8-8 14-3 9-1 17-2-2-1-3v-9l3-12 6-12 9-10 8-7z" fill="#F7F9FA"/>
<path transform="translate(628,565)" d="m0 0 4 1-1 11 9 3 23 3 40 3-3 3-12-1h-7l-5-1-14-1-28-4-5-3-1-4-1-8z" fill="#D4C7C6"/>
<path transform="translate(790,542)" d="m0 0 5 2 1 7-1 6v15l-3 15-3 6h-4v-3l5-10-4 4 2-5 4-12v-5l-6 11-2 1 2-5 5-10 1-14-4-1z" fill="#E5CACB"/>
<path transform="translate(444,271)" d="m0 0 7 2h5l2-1v2l2 2-3 1-16-3h-16l-17 3-17 6-5 1h-7-4l-3-4 1-6 1 3 7 2h14l18-6 7-1h23z" fill="#D1C8C9"/>
<path transform="translate(857,698)" d="m0 0h39v3h-73l-4-2z" fill="#DFC8C9"/>
<path transform="translate(554,520)" d="m0 0 3 4 14 37 16 47 1 7-2-2-14-40-11-31-7-19z" fill="#F7FAFC"/>
<path transform="translate(486,505)" d="m0 0h1l-1 13-5 38-1 3-3-1 1-14 4-30 3-8z" fill="#F7FAFC"/>
<path transform="translate(406,198)" d="m0 0 4 4 5 12 8 12 9 12 6 12 1 7-3-3-13-22-10-15-6-12z" fill="#F8F5F3"/>
<path transform="translate(375,393)" d="m0 0 3 4 4 23 4 10 9 11 1 3-4-2-8-7-6-12-3-18z" fill="#F8F7F6"/>
<path transform="translate(381,505)" d="m0 0 3 1 2 5 3 34v12h-3l-1-3z" fill="#F7FAFC"/>
<path transform="translate(292,230)" d="m0 0 4 2 8 10 7 1 2 4-23 4-2-1v-6l4 1 7-2-7-8z" fill="#D4C7C6"/>
<path transform="translate(556,228)" d="m0 0h9l10 5 3 3 5-4-2 4-5 4-6 1-7-2-7-8z" fill="#E4C9CA"/>
<path transform="translate(546,162)" d="m0 0h7l7 3 2 4-2 2-9-1h-21v-2l8-4z" fill="#C7C7C9"/>
<path transform="translate(287,585)" d="m0 0h2l-2 6-11 23-4 15-4-2 1-2-7 1 8 9 1 8-2-3-6-10-9-8v-1l16 1 10-24z" fill="#CAC9CB"/>
<path transform="translate(300,179)" d="m0 0h6l6 5v6l-4 6-5-1-2-2v-7l3-3-4 1-3 5h-2l1-6z" fill="#D3C7C6"/>
<path transform="translate(891,455)" d="m0 0 3 1-9 4h-3l-1 2-33 12-9 3-13 5h-2l-1-3 22-7 2-2 4-1 3-2 9-2z" fill="#F6F9FB"/>
<path transform="translate(778,659)" d="m0 0 9 3 36 15 6 4v2h7l8 3 6 5h9l-1 2h-10l-9-6-2-1h-7l-3 5h-2l1-10-19-8-27-11-2-1z" fill="#C8CDD0"/>
<path transform="translate(176,602)" d="m0 0 8 1 16 6 12-2h15l12 3 15 8 3 3-5-1-14-8-7-2-8-1h-9l-16 4-6 1 3-3-20-7z" fill="#CFC7C7"/>
<path transform="translate(749,768)" d="m0 0 4 2v20l-1 2-5-1-5-6 1-4 4-2v-8z" fill="#670FB8"/>
<path transform="translate(446,416)" d="m0 0h3v6l-4 1v-3-1l-13 3h-17l6 3 10 1v1h-8v2l-4 1-3-1h-4l-3-7v-4l8 1h17z" fill="#D2C7C6"/>
<path transform="translate(57,382)" d="m0 0 4 4 1 3-4 8-5 3-2 4-11 8-12 6h-3l2-4 9-4h3v-2l8-5h2l2-4 6-8 1-2-9 4h-2v-2l9-4h3z" fill="#C5C9CC"/>
<path transform="translate(495,448)" d="m0 0 10 1 17 4 2 2-5 4-6 4h-3l-3-5-2-2h2v-4l-5 1-1-2-8-1z" fill="#E4C9CA"/>
<path transform="translate(115,361)" d="m0 0h2l5 26 2 20 3 10 6 10 8 7 7 4-2 2-10-7-8-8-5-11-2-9-3-26-3-15z" fill="#DFC9CA"/>
<path transform="translate(217,418)" d="m0 0v3l-5 6-11 9-8 6-11 4h-9l-2-3 19-5 13-7 9-7z" fill="#E4C9CA"/>
<path transform="translate(331,304)" d="m0 0 4 1-8 4-4 3-22 8-9 2-6-1-3-3v-2l5 1 7-1 2 1v2l16-8z" fill="#D0C9C9"/>
<path transform="translate(295,617)" d="m0 0h2l1 7-7 2-4 5-5 11-2 11h-3v-19h3 2l2-4 9-11z" fill="#D3D3DC"/>
<path transform="translate(561,774)" d="m0 0h9l3 4v5l-3 3-9 1-1-1v-11z" fill="#F0EEF0"/>
<path transform="translate(643,412)" d="m0 0h3l-2 4-7 2-16 8-16 10-4 2 2-4 5-5 18-10z" fill="#F8F6F5"/>
<path transform="translate(355,768)" d="m0 0h8l2 4-2 2-10 1-2 2-1 7-3-2-2 3-1-1v-8l5-6z" fill="#24043E"/>
<path transform="translate(179,348)" d="m0 0h9l9 4v1l-20 3-7 1-1-5 6-3z" fill="#D3C7C6"/>
<path transform="translate(166,600)" d="m0 0 5 1v2l-2 1 3 9v6l-6 5-18 5-5-1 4-1 9-3 6-1 2-9 4-4-2-5z" fill="#D1C7C6"/>
<path transform="translate(259,341)" d="m0 0h1v10l-6 25h-4l-3-9v-3l3 1 4-8z" fill="#DBC8C8"/>
<path transform="translate(452,380)" d="m0 0h3l-2 4-2 2 1 7 4 3 7-1 1-10-2-5 7 6-1 6-2 6-10 2-6-4-3-6 2-7z" fill="#F8F8F8"/>
<path transform="translate(576,611)" d="m0 0 5 1 10 6 4 8 3 8 2 13-4 9-4-2 3-12-1-11-4-8-7-7-7-4z" fill="#C3C8CA"/>
<path transform="translate(819,335)" d="m0 0h24l9 3 2 3v9l-4-1 1-9-12-2-20-1-1 9-5 1 1-6 3-5z" fill="#C4C9CB"/>
<path transform="translate(667,267)" d="m0 0h4l-1 3-9 6-8 9-5 11-2 4v-10l4-9 5-5 4-5z" fill="#F8F8F8"/>
<path transform="translate(408,768)" d="m0 0h9l1 5-1 1-12 1-1 9-5-3-1 2v-7l3-5z" fill="#1C0330"/>
<path transform="translate(629,778)" d="m0 0h1l1 8 13 1 1 3-1 2h-19l-1-2v-10l4 1z" fill="#670FB8"/>
<path transform="translate(295,771)" d="m0 0h1l1 11 2-1 3 5 13 1 1 4-1 1h-19l-1-6z" fill="#670FB8"/>
<path transform="translate(725,768)" d="m0 0 4 2v21l-5 1-1-2v-20z" fill="#1E0333"/>
<path transform="translate(468,768)" d="m0 0h8l2 1-1 5-11 1-2 3-1 5-5-2v-6l4-5z" fill="#1F0435"/>
<path transform="translate(565,543)" d="m0 0 4 4 3 12 17 50 2 9-2-1-16-47-9-26z" fill="#D3C9CA"/>
<path transform="translate(148,768)" d="m0 0 4 2v21l-5 1-1-4v-18z" fill="#1E0333"/>
<path transform="translate(170,272)" d="m0 0h15v2l-23 2-17 5-25 13-1 2-2-1 5-5 21-11 15-5z" fill="#C9CACD"/>
<path transform="translate(767,768)" d="m0 0h8l2 4-1 2-11 1-2 2-1 6-2-1v-2h-3l1-7 5-4z" fill="#1E0333"/>
<path transform="translate(381,768)" d="m0 0 4 2 6 11-1 2h-4l-4-4-2 3-5-1 1-5z" fill="#23043D"/>
<path transform="translate(299,622)" d="m0 0h1l7 31-1 4-5-18-3-12h-3l-8 8-4 9-1 5h-1v-7l5-12 5-5 5-1h3z" fill="#CCC9CA"/>
<path transform="translate(325,422)" d="m0 0 10 1 20 4 1 1 12 1 10 1v1h-20l-24-4-8-2z" fill="#CED9D6"/>
<path transform="translate(659,768)" d="m0 0 4 2 6 12-1 2-4-3v2h-2l-1-5h-2l-2 5-1-2-3-1 3-9z" fill="#22043C"/>
<path transform="translate(514,251)" d="m0 0 3 1-5 3-16 4-19 7-13 7-3 2-4-1 15-9 21-8z" fill="#F7FAFC"/>
<path transform="translate(400,469)" d="m0 0h1l2 11 7 8 8 4 11 3h10l13-3 4-2 3 1-8 4-9 2h-17l-11-4-9-6-6-9v-8z" fill="#CDC7C8"/>
<path transform="translate(237,768)" d="m0 0 4 2 5 10-1 2-3-1-1 2-2-5h-2l-2 5-1-2-4 1 2-6z" fill="#1F0435"/>
<path transform="translate(494,189)" d="m0 0 4 2v9l4 6 4 2-1 4-5-2-5-3-3-7v-9z" fill="#F8F7F6"/>
<path transform="translate(582,452)" d="m0 0 1 2-7 14-5 19-3 21-3 1 1-12 5-23 5-13 5-8z" fill="#D3CACB"/>
<path transform="translate(308,110)" d="m0 0m-2 1h2v2l-8 6-7 7-6 10-5 12-6 30h-1v-8l4-20 6-16 9-13 9-8z" fill="#DEC8C9"/>
<path transform="translate(11,462)" d="m0 0 3 1 16 34 6-2 8-4 2 1-17 9-3-1 2-2-3-6h-1l-1 5h-1l-4-19-6-14z" fill="#D1CDD2"/>
<path transform="translate(613,379)" d="m0 0 5 2 1 1v6l-3 2h-8l-4-2 1-5 8-3z" fill="#F8E8E1"/>
<path transform="translate(183,367)" d="m0 0 3 1v2l-4 3 1 7 3 2 6-1 2-3v-8l3 4v9l-9 4-6-3-4-5v-6z" fill="#F8F9F9"/>
<path transform="translate(888,729)" d="m0 0h8l1 7-5 1h-11l-7-1v-2l10-3h4z" fill="#FAEAE2"/>
<path transform="translate(274,229)" d="m0 0 1 4-7 30-2 16-2-1v-9l2-15 6-20z" fill="#F8F5F4"/>
<path transform="translate(427,768)" d="m0 0 3 1v23l-5-1v-22z" fill="#1D0331"/>
<path transform="translate(493,450)" d="m0 0h8l2 2h4v5l3 3-1 3-1-2-4-1-10-4v2h-2l-2-6z" fill="#D1C8C8"/>
<path transform="translate(822,355)" d="m0 0 4 2-11 4-9 8-6 12-2 14-2-1v-8l4-13 7-10 5-4z" fill="#FBF1EC"/>
<path transform="translate(515,768)" d="m0 0 3 1 5 10v2l-4-1-1 3-3-4-2 3-5-1 2-6 4-6z" fill="#200437"/>
<path transform="translate(445,418)" d="m0 0 2 1-5 4-9 3h-12l-8-4v-1h19z" fill="#F8F8F9"/>
<path transform="translate(499,131)" d="m0 0 2 1-7 8-4 10v18l-3-4-2-7 1-10 6-10z" fill="#F7FAFC"/>
<path transform="translate(179,406)" d="m0 0h2l-2 5-6 4-6 2h-9l-4-2v-2l13-2z" fill="#F7F8F9"/>
<path transform="translate(662,391)" d="m0 0 2 4-3 11h-2l-2 2h-4l-19 7-3-1 10-5 14-5h3l2-6h-5l5-6z" fill="#F8EFEB"/>
<path transform="translate(139,541)" d="m0 0 2 2v3l6-1 17 4 6 3 2 2 8 6 9 7-3 1-16-12-12-6-18-3-2-5z" fill="#DDC8C8"/>
<path transform="translate(463,440)" d="m0 0h1v13h-1l-1-9-14 8-9 3-5 1h-12l-14-3h-2v-3l14 3h16l13-4 12-7z" fill="#E4CACB"/>
<path transform="translate(287,134)" d="m0 0h3l-8 24-4 19-3 3 4-24 5-16z" fill="#F8F5F4"/>
<path transform="translate(53,602)" d="m0 0 3 4h3l1 2 5 1 2 4-1 6-2 8h-1l-1-12-1-3-2 1 3 4-1 4-7-12v-2h-2z" fill="#D4C7C6"/>
<path transform="translate(600,172)" d="m0 0h9l5 4 2 4v3l-10-4-9-1 1-4z" fill="#C7C7C9"/>
<path transform="translate(313,214)" d="m0 0 9 1h10l12-1-1 9-2 1 1-5-3 1v-2l2-1h-24l5 3 8 1-1 2h-7l-5-1-1 2-3-7z" fill="#D6C7C6"/>
<path transform="translate(469,435)" d="m0 0v3l-3 3v13l5 11 3 19v8h-2l-1-11-1-1-3 3 2-6v-9l-5-12v-16z" fill="#D0C7C7"/>
<path transform="translate(249,299)" d="m0 0 3 4 9 17 6 16-1 2-3-3-4-9-2-5-9-19z" fill="#F7FAFC"/>
<path transform="translate(392,381)" d="m0 0h5l-4 4v10l3 2 6 1-3 3-9-2-3-7-2-2 5-8z" fill="#F8F9F9"/>
<path transform="translate(130,354)" d="m0 0h8l4 3v3l-14 1-7 2 1-5z" fill="#C7C7C8"/>
<path transform="translate(347,320)" d="m0 0 1 3-2 10v14l-4 2-3-2 2-6v-5l-6 3-2-1 6-4h4l1-8z" fill="#C7C8C9"/>
<path transform="translate(390,443)" d="m0 0 4 2-3 2-11 8-4 5h-2v-2l-6 3h-2l-3 9h-2l1-7 4-5 8-3 4-2 9-8z" fill="#F6F9FB"/>
<path transform="translate(289,585)" d="m0 0h1l-1 7-11 23-4 14h-2l1-9 7-17z" fill="#F7F9FB"/>
<path transform="translate(797,479)" d="m0 0 5 2 4 2 1-2v2h9l1-2 2 1 1-2h2l-1 5-2 2h-13l-8-3z" fill="#F7FAFC"/>
<path transform="translate(521,231)" d="m0 0h2l1 3v13l-4 11h-2l-1 3-3-2 5-10z" fill="#F8F8F8"/>
<path transform="translate(541,184)" d="m0 0 2 1-3 4v7l6 2 4-3 2-7 2 2-1 6-4 4-3 1-11-2-1-8 5-6z" fill="#FAF7F6"/>
<path transform="translate(350,183)" d="m0 0h2v2l-4 4 1 6 1 1h7l1-10 4 4-2 9-13 1-3-6v-5l4-5z" fill="#F8F9F9"/>
<path transform="translate(500,128)" d="m0 0 2 1v2l-7 4-6 8-3 8 1 10 2 6-3-1-3-8v-9l4-9 7-8z" fill="#C6CBCD"/>
<path transform="translate(830,685)" d="m0 0h7l10 6v1h-21l3-6z" fill="#F7FAFC"/>
<path transform="translate(6,292)" d="m0 0 6 2 1 3-6 6-7 4v-9z" fill="#C8C8CA"/>
<path transform="translate(123,399)" d="m0 0 3 1 1 11 5 10 10 12h-3l-7-6-6-10-3-10z" fill="#FCF4EF"/>
<path transform="translate(14,282)" d="m0 0 3 3 9-1 1 2-12 8h-4l-2-4z" fill="#FAEAE2"/>
<path transform="translate(540,247)" d="m0 0 9 3 21 5v2l-2 1-1 5h-1v-5l-10-1-9-4-7-5z" fill="#E3C9CA"/>
<path transform="translate(493,496)" d="m0 0v3l-3 4-8 54-2 1 5-40 1-13 6-8z" fill="#CACBCF"/>
<path transform="translate(293,201)" d="m0 0h1l3 10 2 9 6 10 6 8-4-2-7-7-5-8-2-6z" fill="#F9F7F6"/>
<path transform="translate(854,543)" d="m0 0 2 2-1 5-5 6-6 4h-3l1-5z" fill="#FAEAE2"/>
<path transform="translate(477,504)" d="m0 0 1 3-5 24-4 28h-1v-11l5-33 2-10z" fill="#C7CBCF"/>
<path transform="translate(523,455)" d="m0 0 3 1-13 11-2 5 10 3 4 3-2 1-14-6-1 2v-9l-2-5 6 2 5-4z" fill="#C9CACD"/>
<path transform="translate(620,389)" d="m0 0 3 1-4 4-6 3h-7l-6-3-1-2 1-2 7 1h8z" fill="#F7FAFC"/>
<path transform="translate(702,331)" d="m0 0h10l6 4-1 3-10-1-11-2v-2z" fill="#D4C7C6"/>
<path transform="translate(556,220)" d="m0 0 7 1 22 4-3 3h-11l-12-4z" fill="#F7F9FA"/>
<path transform="translate(889,685)" d="m0 0 1 3-2 4 8-1v3h-45v-1l7-1h28l2-5z" fill="#D8C9CA"/>
<path transform="translate(854,465)" d="m0 0m-3 1h3l1 3-9 3-7 3-16 4 1-3z" fill="#C5CDCC"/>
<path transform="translate(823,377)" d="m0 0h3l4 12h3l11-7 2 1-14 12-4-1-3-7z" fill="#D3C8C9"/>
<path transform="translate(265,576)" d="m0 0h23l2 7-2 1-7-3-15-2-2-2z" fill="#DED0CD"/>
<path transform="translate(317,516)" d="m0 0 1 3-18 37h6v1l-14 3 3-3h3l3-9 15-31z" fill="#C4C9CB"/>
<path transform="translate(853,555)" d="m0 0 2 2-3 6-9 6h-3v-2h-2l2-4 12-7z" fill="#FAEAE2"/>
<path transform="translate(20,552)" d="m0 0 3 4 7 11 3 4v2l2 1-5-1-7-7-4-7z" fill="#FAEAE2"/>
<path transform="translate(771,471)" d="m0 0 10 1 15 4 7 3v2h3v2l-6-2h-4l-1-2-10-2-4-1v-2l-5 1-5-2z" fill="#C5CCCC"/>
<path transform="translate(582,267)" d="m0 0 9 2 17 9 8 8 5 9-1 3-6-10-7-7-14-8-11-5z" fill="#F7FAFC"/>
<path transform="translate(534,286)" d="m0 0 9 1 11 1 1 3-1 1h-15l-6-3z" fill="#D5D5DF"/>
<path transform="translate(666,388)" d="m0 0h1v10l-5 13-4 4h-2l1-5 3-4 5-17z" fill="#F8F7F7"/>
<path transform="translate(251,375)" d="m0 0 2 1 1 9 5 9 9 9-1 2-9-8-6-10-4 5-4 4-2-1 6-7z" fill="#E3C9CA"/>
<path transform="translate(290,329)" d="m0 0 18 6 1-2 3 3 15 5 6-2-3 5-5-1-13-4-12-3-10-6z" fill="#D5C8C9"/>
<path transform="translate(30,702)" d="m0 0h3l3 17-1 3-5-4-2-10v-5z" fill="#FAEAE2"/>
<path transform="translate(866,606)" d="m0 0h16l15 3-2 2-11-2h-23l-15 2h-7l4-2z" fill="#C6C9CB"/>
<path transform="translate(444,781)" d="m0 0 10 2v8l-5 1-6-7z" fill="#660EB6"/>
<path transform="translate(229,425)" d="m0 0 4 2 2 3v9l-4 11-9 10-5 4-3 2-3-1 10-7 7-8 4-10v-10z" fill="#D0C8C8"/>
<path transform="translate(394,187)" d="m0 0 4 1 2 4v11l-4 7-4-2 4-8-1-11z" fill="#FAF7F5"/>
<path transform="translate(719,780)" d="m0 0h1v10l-1 2-5-1-6-8 1-1h8l1 1z" fill="#670FB8"/>
<path transform="translate(27,686)" d="m0 0 6 3 10 9v2l-4-1-1 2h-2l-2-6-2-1v2h-2l-1 2 1-6-5-5z" fill="#D4D0D7"/>
<path transform="translate(98,641)" d="m0 0 15 1v3l-9 3-8-2v-4z" fill="#F7FAFC"/>
<path transform="translate(134,373)" d="m0 0h3l-2 4-1 7 3 4 4 2-2 2-6-1-4-7 1-6z" fill="#F8F8F8"/>
<path transform="translate(685,249)" d="m0 0 4 1-5 5-5 8-5 5 1-8 3-6 5-4z" fill="#F7F8F9"/>
<path transform="translate(104,661)" d="m0 0 7 6 8 8 10 7-4 1-9-7-10-8-3-4z" fill="#CEDAD6"/>
<path transform="translate(255,434)" d="m0 0 6 2 17 9 3 2 5-12 1 3-3 11 2 4-9-5-8-5-14-7z" fill="#C5CCCC"/>
<path transform="translate(316,216)" d="m0 0h26l-3 3-5 2h-12l-6-4z" fill="#F7F9FA"/>
<path transform="translate(329,782)" d="m0 0h8l3 1v8l-5 1-6-7z" fill="#660EB6"/>
<path transform="translate(708,382)" d="m0 0 14 5 10 2-4 3-10-1-8-5z" fill="#F7F8F9"/>
<path transform="translate(336,768)" d="m0 0 4 1v14l-6-1v-12z" fill="#260542"/>
<path transform="translate(828,681)" d="m0 0 1 2h7l8 3 6 5h9l-1 2h-10l-9-6-2-1h-7l-3 5h-2l2-9z" fill="#D3D4DD"/>
<path transform="translate(23,568)" d="m0 0 7 6 9 7-4 1-9-3-3-5z" fill="#FAEAE2"/>
<path transform="translate(790,542)" d="m0 0 5 2 1 7-1 10-3 1-6 11-2 1 2-5 5-10 1-14-4-1z" fill="#E4C9CA"/>
<path transform="translate(324,247)" d="m0 0 5 1 1 12-5 3 1-4-2-1 1-2h-2l-1-7z" fill="#D4C7C6"/>
<path transform="translate(542,781)" d="m0 0 7 1 2 2v7l-4 1-7-8z" fill="#670FB8"/>
<path transform="translate(140,768)" d="m0 0 3 1-1 6-3 7h-6l1-5 4-8z" fill="#22043C"/>
<path transform="translate(749,768)" d="m0 0 4 2v12l-2 1-5-1 1-3v-8z" fill="#270544"/>
<path transform="translate(350,161)" d="m0 0h5l5 6-3 1h-14l1-4z" fill="#D1C7C6"/>
<path transform="translate(299,771)" d="m0 0 16 2v1h-14v10l-3-2-2 2v-12z" fill="#1F0435"/>
<path transform="translate(21,572)" d="m0 0h2l5 9 2 8 2 2h-21l-11 3 1-3 7-2 19-1-3-9z" fill="#DACACC"/>
<path transform="translate(349,180)" d="m0 0h8l5 4 2 7-3-1-4-6-3-1-2 2v-2l-5 3-4 4 2-7z" fill="#CAC7C8"/>
<path transform="translate(706,380)" d="m0 0 9 3 10 3 11 1-2 5-1 2-3-1v-3l-16-5-5-2v2h-2l-1 3z" fill="#D6C7C7"/>
<path transform="translate(613,113)" d="m0 0 5 1 8 6 6 9 2 5v5l-3-4-5-10-7-7-6-4z" fill="#F7FAFC"/>
<path transform="translate(204,768)" d="m0 0 4 2v7l-1 5h-2l-2 2-1-1v-13z" fill="#22043B"/>
<path transform="translate(182,403)" d="m0 0h2l1 9-2-3v-2l-6 1-10 4-13 2-4 1-1-4 16-1 13-5z" fill="#D6C7C7"/>
<path transform="translate(583,116)" d="m0 0 5 1 3 3-1 4-3 2h-4l-1-3-2-1 1-4z" fill="#F7FAFC"/>
<path transform="translate(547,768)" d="m0 0 4 1 1 5-1 10-6-2 1-13z" fill="#200437"/>
<path transform="translate(122,768)" d="m0 0 3 1 5 10-1 3-2-1-2 2-5-10v-4z" fill="#1F0435"/>
<path transform="translate(57,382)" d="m0 0 4 4 1 3-4 8-5 3h-3l6-7 2-4-9 4h-2v-2l9-4h3z" fill="#C5C7C9"/>
<path transform="translate(694,351)" d="m0 0h1l1 9 6 1 4-3 2-7 2 1 1 5-4 5-3 2-11-2-1-9z" fill="#FAF7F5"/>
<path transform="translate(788,593)" d="m0 0 1 3 8-2 4 1-7 3h-3l-1 5-1 3-5-1-2-4 4-1 1-5z" fill="#D4C7C6"/>
<path transform="translate(96,519)" d="m0 0h5l-1 2-28 8h-5l1-2z" fill="#F7FAFC"/>
<path transform="translate(301,161)" d="m0 0 7 1 3 5-3 1h-12l1-5z" fill="#CBC7C8"/>
<path transform="translate(732,770)" d="m0 0h1v11l5 1v9l-5 1-1-2z" fill="#670FB8"/>
<path transform="translate(450,768)" d="m0 0 4 2v13l-7-1 2-1-1-11z" fill="#1D0333"/>
<path transform="translate(154,289)" d="m0 0h2l-1 5-8 3h-5l-1-4 4-3h2v2z" fill="#F7FAFC"/>
<path transform="translate(603,768)" d="m0 0 4 2v9l-2 4-3-1-1-5v-7z" fill="#1C0330"/>
<path transform="translate(496,653)" d="m0 0 2 1 1 5 22 1-3 2-13 1 2 4 3 2-2 1-5-4-7-7z" fill="#E2C9CA"/>
<path transform="translate(850,567)" d="m0 0 1 3-6 5-10 4-1-3 2-3 13-5z" fill="#FAEAE2"/>
<path transform="translate(371,384)" d="m0 0 2 1 4 28-1 3h-5l4-1-3-16-6-6h6z" fill="#E4C9CA"/>
<path transform="translate(313,426)" d="m0 0 9 3 6 3v2l3 1-3 2-11-5-4-2z" fill="#F7FAFC"/>
<path transform="translate(298,413)" d="m0 0 17 5 2 4-11-2-8-3z" fill="#D5D5DF"/>
<path transform="translate(660,269)" d="m0 0 2 1-3 1-2 4-5 4-4 8-4 14-3 2 3-11 4-11 6-8z" fill="#E7CFD0"/>
<path transform="translate(685,781)" d="m0 0 6 1 1 3h2l2 3-1 4-5-1-5-6z" fill="#670FB8"/>
<path transform="translate(219,768)" d="m0 0 4 2v11l-5 1-1-12z" fill="#1C0330"/>
<path transform="translate(27,581)" d="m0 0 11 3v2h-5v2l9 2-2 2-8-1-3-2z" fill="#FAEAE2"/>
<path transform="translate(642,370)" d="m0 0 6 2-1 2-21 9-4 1v-2l16-8h2v-2h2z" fill="#FAF7F5"/>
<path transform="translate(750,338)" d="m0 0h6l7 6v2l-7-2-10-1 2-4z" fill="#D2C7C6"/>
<path transform="translate(604,193)" d="m0 0 4 2 2 4-1 6-3 4h-8l5-4 2-5z" fill="#FBF7F4"/>
<path transform="translate(38,502)" d="m0 0h5l-1 2-6 4-4 1h-10l2-3z" fill="#ECE5E4"/>
<path transform="translate(134,369)" d="m0 0 6 1 5 5 1 2-3-1v-2l-4-1-2 1-4 1-4 6h-1v-6l4-5z" fill="#C9C7C8"/>
<path transform="translate(160,342)" d="m0 0h8l-1 5-13 3h-5l3-2 2-1-1-2 7-1z" fill="#D4C7C7"/>
<path transform="translate(167,191)" d="m0 0 5 1 2 2v3l-9 2-4 2 1-6z" fill="#D8C7C7"/>
<path transform="translate(723,777)" d="m0 0 1 4 4 1 1-2v11l-5 1-1-2z" fill="#670FB8"/>
<path transform="translate(675,776)" d="m0 0h1l1 6 4-2v10l-1 2-5-1z" fill="#670FB8"/>
<path transform="translate(518,661)" d="m0 0h3v2l-8 4-1 1h-5l-3-5v-1z" fill="#F6E6DF"/>
<path transform="translate(289,575)" d="m0 0h1l7 33v5l-2-1-4-19-1-8-2-1 1-2-1-6z" fill="#C6CACD"/>
<path transform="translate(517,535)" d="m0 0h4l-1 9-4 6-1-2 1-4h-16v-1l16-1z" fill="#F7FAFC"/>
<path transform="translate(370,491)" d="m0 0 5 4 7 8 1 13v13h-1l-3-24-4-6-5-6z" fill="#C4C9CC"/>
<path transform="translate(462,380)" d="m0 0 7 6-1 6-2 6-7 1 2-4h2l1-10z" fill="#FBF7F4"/>
<path transform="translate(699,775)" d="m0 0h1v7h3l2-2v11l-5 1-1-2z" fill="#670FB8"/>
<path transform="translate(165,781)" d="m0 0 5 1 5 5-1 5-4-1-6-7z" fill="#670FB8"/>
<path transform="translate(519,224)" d="m0 0 2 2 1 5-2 18-4 7-1 3 1 4h-2l-1-7 1-3 2-2v-2h2l1-10z" fill="#D7C8C8"/>
<path transform="translate(0,664)" d="m0 0 8 6 2 5h-8l-2-1z" fill="#EAE3E4"/>
<path transform="translate(373,465)" d="m0 0 2 2 2 9-1 6-3-3-3-8 2-5z" fill="#C3C8CA"/>
<path transform="translate(115,308)" d="m0 0 2 1-10 6-12 4h-9l4-2 18-6z" fill="#F7FAFC"/>
<path transform="translate(633,777)" d="m0 0h9l1 5-1 1h-10v-5z" fill="#310656"/>
<path transform="translate(626,768)" d="m0 0h17l2 4-5 1-5-2h-10z" fill="#09010F"/>
<path transform="translate(257,349)" d="m0 0 1 4-5 21-2-1-1-7z" fill="#F8F6F5"/>
<path transform="translate(146,776)" d="m0 0h1l1 6h3l1-3v12l-5 1-1-4z" fill="#670FB8"/>
<path transform="translate(304,777)" d="m0 0h9l1 5-1 1h-9l-1-5z" fill="#2C064E"/>
<path transform="translate(358,472)" d="m0 0h2l-2 4-15 8-4 3-2-1 8-7z" fill="#F7FAFC"/>
<path transform="translate(373,274)" d="m0 0 1 3 12 3 1 2-8 2h-4l-3-4z" fill="#C7CACC"/>
<path transform="translate(264,624)" d="m0 0 5 1 1 2h1l1 16h-1l-3-9-7-8z" fill="#D4D5DE"/>
<path transform="translate(628,565)" d="m0 0 4 1-1 11 9 3 1 2h-7l-5-3-1-4-1-8z" fill="#CFC7C6"/>
<path transform="translate(0,361)" d="m0 0 2 2v7l2 4-2 12-2 4z" fill="#F7FAFC"/>
<path transform="translate(362,288)" d="m0 0 6 2-2 2-7 1-17 6-3-1z" fill="#C8CBD0"/>
<path transform="translate(569,482)" d="m0 0 2 1-2 17-1 8-3 1 1-12z" fill="#D3CCCF"/>
<path transform="translate(178,461)" d="m0 0 8 5 4 1h12l9-2 1 2-13 3h-7l-10-3-4-3z" fill="#CAC7C8"/>
<path transform="translate(357,777)" d="m0 0h9l1 1v5h-10l-1-5z" fill="#280546"/>
<path transform="translate(149,442)" d="m0 0 2 1-10 7-8 7-6 8-1-2 8-11 8-6z" fill="#F7FAFC"/>
<path transform="translate(291,312)" d="m0 0 5 1 2-1 3 3h2v2l-6 2v-2l-12 1 1-3 5-1z" fill="#F4E5DF"/>
<path transform="translate(255,768)" d="m0 0 4 2-1 13-1-2-3 1v-13z" fill="#1C0331"/>
<path transform="translate(28,590)" d="m0 0 7 1v2l4 1 2 3 6 5 1 3h-3l-9-9-8-4z" fill="#C6C7C9"/>
<path transform="translate(227,398)" d="m0 0 2 1-4 10 1 10 4 10-1 2-4-6-3-15z" fill="#E2C9CA"/>
<path transform="translate(11,462)" d="m0 0 3 1 11 23-1 3-1-2-2 3-4-15z" fill="#CFCFD6"/>
<path transform="translate(891,455)" d="m0 0 3 1-9 4h-3l-1 2-11 4-4-1 5-3z" fill="#F7FAFC"/>
<path transform="translate(776,692)" d="m0 0h8l7 2-2 2h-18l3-3z" fill="#FCF6F2"/>
<path transform="translate(845,472)" d="m0 0m-3 1h3v2l-19 7h-2l-1-3z" fill="#F7FAFC"/>
<path transform="translate(410,274)" d="m0 0h2v2l-21 7-11 1v-1l6-2v-1l12-2z" fill="#D2C9CA"/>
<path transform="translate(619,169)" d="m0 0 2 4 1 12-3 12h-2z" fill="#D5C7C7"/>
<path transform="translate(279,626)" d="m0 0 1 2-2 6-1 19-2-3-1-12 4-11z" fill="#F7FAFC"/>
<path transform="translate(19,710)" d="m0 0 1 3 6 1 1 8-2 1-4-4-2-5z" fill="#FAEAE2"/>
<path transform="translate(301,182)" d="m0 0 4 1-3 1v9l2 2 4 2h-6l-2-1-3-6 1-5z" fill="#F8F7F7"/>
<path transform="translate(471,777)" d="m0 0h9l1 6h-2l-2-2-2 1h-6l1-4z" fill="#35075D"/>
<path transform="translate(76,638)" d="m0 0h10l5 1 3-1v3l-6 1h-9l-4-3z" fill="#D3C7C6"/>
<path transform="translate(295,617)" d="m0 0h2l1 7-7 2-4 2 2-4z" fill="#D4D4DD"/>
<path transform="translate(470,469)" d="m0 0h2l2 15v8h-2l-1-11-1-1-3 3 2-6z" fill="#C5C7C9"/>
<path transform="translate(186,780)" d="m0 0 5 2v9l-4 1-1-1z" fill="#670FB8"/>
<path transform="translate(691,445)" d="m0 0 4 1-12 4 7 2-3 2-10-3-2 1v-3z" fill="#CCC9C9"/>
<path transform="translate(574,382)" d="m0 0h5v2l3-1v2l3-1v2l3-1 8 4-1 3-14-5-7-4z" fill="#F7FAFC"/>
<path transform="translate(313,214)" d="m0 0h2l5 5 10 2-1 2h-7l-5-1-1 2-3-7z" fill="#D3C8C8"/>
<path transform="translate(169,552)" d="m0 0 4 2 1 2 5 3 10 8-3 1-16-12z" fill="#E1C9C9"/>
<path transform="translate(45,392)" d="m0 0h2v2l-14 9-6 5h-3l1-2 7-6z" fill="#D6C9CA"/>
<path transform="translate(599,153)" d="m0 0v3 2l9-4 3-1-1 3-12 5-8 1 5-5z" fill="#D4C7C6"/>
<path transform="translate(533,781)" d="m0 0 3 1v10l-5-1v-8z" fill="#670FB8"/>
<path transform="translate(427,781)" d="m0 0 3 1v10l-5-1v-7z" fill="#670FB8"/>
<path transform="translate(630,774)" d="m0 0h13l-2 1v2l-8 1-2 7h-1z" fill="#E9E6E6"/>
<path transform="translate(15,711)" d="m0 0h1l1 10-1 4h-2l-3-6 1-5h3z" fill="#FAEAE2"/>
<path transform="translate(645,528)" d="m0 0 1 3-8 21h-1l1-7-3-3 2-3 3 1z" fill="#D0C9CA"/>
<path transform="translate(351,427)" d="m0 0 17 2 10 1v1h-20l-7-1z" fill="#CFDDD6"/>
<path transform="translate(21,270)" d="m0 0 3 4 1 4-7 3-3-1z" fill="#FAEAE2"/>
<path transform="translate(77,253)" d="m0 0h2v2l-23 13-3 1v-2l15-9 8-4z" fill="#D4D4DD"/>
<path transform="translate(300,179)" d="m0 0h6l5 5-5-2-5 1-4 6h-2l1-6z" fill="#C9C7C8"/>
<path transform="translate(155,782)" d="m0 0h5v9l-4 1-1-1z" fill="#670FB8"/>
<path transform="translate(436,781)" d="m0 0 3 1v9l-4 1-1-1v-7z" fill="#670FB8"/>
<path transform="translate(510,473)" d="m0 0 9 3 11 6 1 2-5-1-16-8z" fill="#F7FAFC"/>
<path transform="translate(503,377)" d="m0 0 5 2 4 6v14l-2 4-1-2 1-4v-7l-3-8z" fill="#E2C9CA"/>
<path transform="translate(321,782)" d="m0 0h4v9l-4 1-1-1v-8z" fill="#670FB8"/>
<path transform="translate(515,778)" d="m0 0 3 3 2 5-1 1h-7l-1-2z" fill="#ECE5E8"/>
<path transform="translate(355,768)" d="m0 0h8l2 4-1 1h-7l-1-3-6 1 1-2z" fill="#0A0111"/>
<path transform="translate(254,621)" d="m0 0 4 1 10 10 3 6v5l-2-3-6-10-9-8z" fill="#C3C8CA"/>
<path transform="translate(373,455)" d="m0 0 2 2-7 4h-2l-3 9h-2l1-7 4-5z" fill="#F7FAFC"/>
<path transform="translate(880,451)" d="m0 0 8 1-3 2-10 4h-2l1-6z" fill="#FBF5F2"/>
<path transform="translate(291,373)" d="m0 0m-28 1 9 1h12l7-1-3 3-3 1h-9l-13-3z" fill="#E5CACB"/>
<path transform="translate(637,373)" d="m0 0 3 1-16 8h-2v5l-3 1-1-7 9-3z" fill="#D4C7C7"/>
<path transform="translate(640,350)" d="m0 0h2l1 13 6 9-4-2-4-5-1-2-1-12z" fill="#DDC8C8"/>
<path transform="translate(21,267)" d="m0 0 3 1 3 5h-5-2l-4 7-3 1 2-5z" fill="#E0CDCE"/>
<path transform="translate(411,777)" d="m0 0h9l1 4-11 1z" fill="#2D064E"/>
<path transform="translate(257,621)" d="m0 0 13 1 1 5h-3l1-2h-9z" fill="#D4C7C6"/>
<path transform="translate(131,594)" d="m0 0h7l5 4 2 5-5-2-9-6z" fill="#D4C7C6"/>
<path transform="translate(400,469)" d="m0 0h1l2 11 7 8-1 2-6-5-4-7v-8z" fill="#CFC7C7"/>
<path transform="translate(522,454)" d="m0 0 2 1-5 4-6 4h-3l-1-3 10-5z" fill="#F8F6F5"/>
<path transform="translate(659,778)" d="m0 0h2l3 8-1 1h-7l1-5z" fill="#ECE8E9"/>
<path transform="translate(681,774)" d="m0 0h9v3l-7 1-1 10h-1z" fill="#E1E0E3"/>
<path transform="translate(662,391)" d="m0 0 2 4-2 7-2-4h-5l5-6z" fill="#EFDAD6"/>
<path transform="translate(643,379)" d="m0 0 2 2-19 8-1-4 3-1 5-1z" fill="#F5F8FA"/>
<path transform="translate(819,335)" d="m0 0 3 1-3 1-1 9-5 1 1-6 3-5z" fill="#C8CACE"/>
<path transform="translate(249,299)" d="m0 0 3 4 5 9v4h-2l-7-14z" fill="#ECEEF2"/>
<path transform="translate(267,655)" d="m0 0h22l-1 3-13-1-8-1z" fill="#D2DDD9"/>
<path transform="translate(473,444)" d="m0 0h7l6 4 6 7 1 6-3-4-5-7-8-4z" fill="#F7FAFC"/>
<path transform="translate(679,251)" d="m0 0 2 1-4 5-4 11-1-2-6 3-4-1 7-3h3l1-5 5-8z" fill="#E8CFCE"/>
<path transform="translate(770,777)" d="m0 0h8l1 4-3-1-2 2h-6l1-4z" fill="#310657"/>
<path transform="translate(800,373)" d="m0 0 2 1-3 11-1 10-2-1v-8z" fill="#FAEAE2"/>
<path transform="translate(310,337)" d="m0 0 9 1 10 3 4-2-3 5-5-1-15-5z" fill="#DACACB"/>
<path transform="translate(742,262)" d="m0 0 5 1 15 5v1h-7l-14-5z" fill="#F8F6F5"/>
<path transform="translate(237,778)" d="m0 0h2l3 6-1 3-7-1 2-6z" fill="#EDE9EB"/>
<path transform="translate(496,457)" d="m0 0 6 1 5 4 2 4-1 7h-1l-2-8-5-5z" fill="#F7FAFC"/>
<path transform="translate(701,343)" d="m0 0 7 1 3 4 1 8-2-1-3-9h-8-3z" fill="#CBC7C8"/>
<path transform="translate(260,332)" d="m0 0 1 2 3 1v2l4 1 2 6h-3l-4-5-1-2-2 4z" fill="#D0CBCE"/>
<path transform="translate(54,245)" d="m0 0 4 2-14 7v-3z" fill="#D2DADA"/>
<path transform="translate(838,685)" d="m0 0 6 1 6 5h9l-1 2h-10l-10-7z" fill="#D4D0D5"/>
<path transform="translate(747,549)" d="m0 0 6 1 3 3v11h-1l-1-9-3-3-6 1-2 2 1-4z" fill="#DFC9C9"/>
<path transform="translate(134,498)" d="m0 0h1l2 22-3-4-2-6z" fill="#C3C8CA"/>
<path transform="translate(505,479)" d="m0 0 1 2-6 9-5 6v-3l8-13z" fill="#C4C8CA"/>
<path transform="translate(348,474)" d="m0 0 2 3-10 7-4 3-1-2h2v-2l5-5z" fill="#C6C9CD"/>
<path transform="translate(564,377)" d="m0 0 10 3 3 1-1 2-3 1-7-3-3-1z" fill="#E4E6EC"/>
<path transform="translate(295,373)" d="m0 0 8 1 6 2v1h-8l-2 4-3-5z" fill="#D7C7C6"/>
<path transform="translate(18,360)" d="m0 0 4 1-3 2-11 6-2 1 1-4z" fill="#F7FAFC"/>
<path transform="translate(240,287)" d="m0 0 11 1v1l-5 1 1 4-1 2-4-2z" fill="#CED0D6"/>
<path transform="translate(347,106)" d="m0 0h5l-5 4-9 5-2 1 2-4 5-4z" fill="#F9F1ED"/>
<path transform="translate(382,778)" d="m0 0 3 4 1 4-2 1h-5l-1-2z" fill="#EFEDEE"/>
<path transform="translate(785,476)" d="m0 0h11l7 3v2h3v2l-6-2h-4l-1-2-10-2z" fill="#CAD6D1"/>
<path transform="translate(12,283)" d="m0 0v3l-2 6-2 2h-3l-5 4 2-4 7-8z" fill="#DDC9CA"/>
<path transform="translate(358,186)" d="m0 0 4 4-2 9h-6l3-5 1-6z" fill="#FCF6F2"/>
<path transform="translate(385,126)" d="m0 0 4 2-1 4-5 1-2-4z" fill="#FAEAE2"/>
<path transform="translate(186,608)" d="m0 0 9 2 1 2-4 2-5-1z" fill="#D5D5DF"/>
<path transform="translate(68,491)" d="m0 0v3l2 2-5-1-1 2-9 1 2-3z" fill="#FAF0EA"/>
<path transform="translate(316,254)" d="m0 0h4l1 3-2 3h-4v-2l-4-1 3-2z" fill="#D4C7C6"/>
<path transform="translate(525,108)" d="m0 0v3l-5 4-7 3h-3v-2l12-6z" fill="#C8CCCE"/>
<path transform="translate(792,610)" d="m0 0 15 7-4 2v-2l-5-1-7-4z" fill="#D9C8C8"/>
<path transform="translate(493,496)" d="m0 0v3l-3 4-2 13h-2v-12z" fill="#C6C9CB"/>
<path transform="translate(370,434)" d="m0 0 5 1-1 2 3 2h-9l-2-1v-3z" fill="#F7FAFC"/>
<path transform="translate(569,222)" d="m0 0 19 1-1 4h-2v-2l-13-1z" fill="#D8C7C7"/>
<path transform="translate(735,156)" d="m0 0 4 1v6l-4 1-2-4z" fill="#E0C9C9"/>
<path transform="translate(237,610)" d="m0 0 6 2 11 6 3 3-5-1-15-9z" fill="#D3C7C8"/>
<path transform="translate(390,394)" d="m0 0 4 2 8 2-3 3-6-1-2-1z" fill="#F9F8F7"/>
<path transform="translate(297,390)" d="m0 0h1v8l-4 3-3-1z" fill="#FAEAE2"/>
<path transform="translate(574,217)" d="m0 0h5l1 5h-8z" fill="#FDF7F3"/>
<path transform="translate(115,673)" d="m0 0 4 2 10 7-4 1-9-7z" fill="#D3D6DD"/>
<path transform="translate(325,422)" d="m0 0 10 1 4 1-1 2h-8l-4-1z" fill="#D4D5DE"/>
<path transform="translate(375,393)" d="m0 0 3 4 1 10-4-2z" fill="#FCF6F2"/>
<path transform="translate(355,391)" d="m0 0h1l1 13-4-4v-8z" fill="#FDF7F3"/>
<path transform="translate(331,304)" d="m0 0 4 1-8 4-4 3-3-1 1-3z" fill="#C6CBCD"/>
<path transform="translate(291,131)" d="m0 0 7 3v4l-7-2-1-3z" fill="#F9E9E1"/>
<path transform="translate(595,89)" d="m0 0 2 1 1 4v10l-3 1-2-4 3-1z" fill="#C9CFD0"/>
<path transform="translate(287,585)" d="m0 0h2l-2 6-5 10h-2l1-4z" fill="#D2C9CA"/>
<path transform="translate(266,263)" d="m0 0h1v9l-1 7-2-1v-9z" fill="#F8F2EF"/>
<path transform="translate(552,188)" d="m0 0 2 2-1 6-4 4-3 1v-3l4-3z" fill="#FCF6F2"/>
<path transform="translate(189,567)" d="m0 0 4 1v2l9 1v2l-9-1-6-3z" fill="#D9C7C7"/>
<path transform="translate(10,696)" d="m0 0h2v3h2v6l-4 1z" fill="#D4C7C6"/>
<path transform="translate(85,526)" d="m0 0m-4 1h4v2l-15 4-1-2z" fill="#F7FAFC"/>
<path transform="translate(133,424)" d="m0 0 7 6 2 4-5-2-5-5z" fill="#FCF3EE"/>
<path transform="translate(132,370)" d="m0 0 2 1-1 4-4 6h-1v-6z" fill="#D4C7C6"/>
<path transform="translate(318,309)" d="m0 0 4 2-15 5v-2z" fill="#D4D4DE"/>
<path transform="translate(0,664)" d="m0 0 8 6 1 2-4-1-5-1z" fill="#CCC7C8"/>
<path transform="translate(783,603)" d="m0 0 9 5v3l-4-1-6-5z" fill="#E7D2D1"/>
<path transform="translate(826,472)" d="m0 0 3 1v2l-5 2-6-1 2-2z" fill="#FCF5F1"/>
<path transform="translate(149,411)" d="m0 0h14v2l-9 1-4 1z" fill="#D0C7C7"/>
<path transform="translate(655,398)" d="m0 0h5l-1 4-1 2-5 1z" fill="#D8C7C7"/>
<path transform="translate(328,273)" d="m0 0 5 2 7 4-4 1-6-3z" fill="#F5F1EE"/>
<path transform="translate(385,193)" d="m0 0h2l1 2 3 2-6 3h-2l1-6z" fill="#E5CACB"/>
<path transform="translate(394,187)" d="m0 0 4 1 2 6-3 4-2-9z" fill="#FCF6F1"/>
<path transform="translate(351,162)" d="m0 0h5l4 6-9-2z" fill="#C5C7C9"/>
<path transform="translate(544,616)" d="m0 0v3l-10 5-3-1 6-3 2-3 1 2z" fill="#E5CACB"/>
<path transform="translate(844,382)" d="m0 0 2 1-7 6-5 2 2-4z" fill="#CBCACD"/>
<path transform="translate(194,370)" d="m0 0 3 4v9h-3l-1-3 1-7z" fill="#FBF7F4"/>
<path transform="translate(642,370)" d="m0 0 6 2-1 2-7 2-1-2 1-2h2z" fill="#F5EAE5"/>
<path transform="translate(183,367)" d="m0 0 3 1v2l-4 3-2 4-2-4z" fill="#F8F7F7"/>
<path transform="translate(280,325)" d="m0 0 3 1 1 6 4 4-3 1-6-9z" fill="#E3CACB"/>
<path transform="translate(623,116)" d="m0 0 7 6 4 7h-3l-6-9z" fill="#C5CACC"/>
<path transform="translate(308,110)" d="m0 0m-2 1h2v2l-12 9v-3z" fill="#E1C9C9"/>
<path transform="translate(628,565)" d="m0 0 4 1-2 9-3-4z" fill="#D4C8C7"/>
<path transform="translate(347,320)" d="m0 0 1 3-3 12h-1v-9z" fill="#CAC8C9"/>
<path transform="translate(717,295)" d="m0 0 10 2-1 2h-7l-3-3z" fill="#FAF8F6"/>
<path transform="translate(123,476)" d="m0 0h1l1 16-4-4 1-2z" fill="#C3C7C9"/>
<path transform="translate(711,455)" d="m0 0 9 2 2 3-9-1z" fill="#FCF7F4"/>
<path transform="translate(617,424)" d="m0 0m-2 1 2 1-1 3-5 3-3-1 5-5z" fill="#F8F8F8"/>
<path transform="translate(127,415)" d="m0 0h2l4 7v3l-4-2-2-4z" fill="#FAF5F3"/>
<path transform="translate(706,380)" d="m0 0 9 3 1 2-7-2v2h-2l-1 3z" fill="#D1C7C7"/>
<path transform="translate(614,373)" d="m0 0 1 4-1 4-6 1 2-3v-5l4 1z" fill="#D3CDD2"/>
<path transform="translate(181,365)" d="m0 0 3 1-5 7-2 3v-6z" fill="#CAC8C9"/>
<path transform="translate(282,149)" d="m0 0h1l-1 9-1 3h-2l1-9z" fill="#F8F7F7"/>
<path transform="translate(813,480)" d="m0 0h6v2l-3 1h-9v-2z" fill="#C8D0CD"/>
<path transform="translate(407,453)" d="m0 0h1v6l-6 9-2-1z" fill="#D1C7C6"/>
<path transform="translate(823,377)" d="m0 0h3l2 9-3 1z" fill="#CEC9CB"/>
<path transform="translate(259,341)" d="m0 0h1v10l-1 5-2-1v-8z" fill="#D5C7C6"/>
<path transform="translate(352,292)" d="m0 0 2 1-3 3-9 3-3-1z" fill="#CCCED4"/>
<path transform="translate(386,280)" d="m0 0h7l1 2-8 2h-6v-1l6-2z" fill="#D2CED2"/>
</svg>
